thincompressed.ufo
<glyph name="exclam" format="1">
  <advance width="89"/>
  <unicode hex="0021"/>
  <outline>
    <contour>
      <point x="58" y="18"/>
      <point x="30" y="18"/>
      <point x="58" y="18" type="curve"/>
      <point x="58" y="27"/>
      <point x="52" y="32"/>
      <point x="43" y="32" type="curve"/>
      <point x="35" y="32"/>
      <point x="30" y="26"/>
      <point x="30" y="18" type="curve"/>
      <point x="58" y="18"/>
      <point x="30" y="18"/>
      <point x="58" y="18" type="curve"/>
      <point x="58" y="9"/>
      <point x="52" y="5"/>
      <point x="43" y="5" type="curve"/>
      <point x="35" y="5"/>
      <point x="30" y="10"/>
      <point x="30" y="18" type="curve"/>
    </contour>
    <contour>
      <point x="55" y="229"/>
      <point x="31" y="229"/>
      <point x="55" y="229" type="curve"/>
      <point x="55" y="393"/>
      <point x="55" y="558"/>
      <point x="55" y="722" type="curve"/>
      <point x="31" y="722"/>
      <point x="55" y="722"/>
      <point x="31" y="722" type="curve"/>
      <point x="31" y="558"/>
      <point x="31" y="393"/>
      <point x="31" y="229" type="curve"/>
    </contour>
  </outline>
</glyph>
<glyph name="comma" format="1">
  <advance width="165"/>
  <unicode hex="002C"/>
  <outline>
    <contour>
      <point x="59" y="-99"/>
      <point x="30" y="-99"/>
      <point x="59" y="-99" type="curve"/>
      <point x="84" y="-39"/>
      <point x="110" y="22"/>
      <point x="135" y="82" type="curve"/>
      <point x="102" y="82"/>
      <point x="135" y="82"/>
      <point x="102" y="82" type="curve"/>
      <point x="78" y="22"/>
      <point x="54" y="-39"/>
      <point x="30" y="-99" type="curve"/>
    </contour>
  </outline>
</glyph>
<glyph name="E" format="1">
  <advance width="373"/>
  <unicode hex="0045"/>
  <outline>
    <contour>
      <point x="253" y="374"/>
      <point x="275" y="374"/>
      <point x="253" y="374" type="curve"/>
      <point x="253" y="374"/>
      <point x="253" y="374"/>
      <point x="253" y="374" type="curve"/>
      <point x="275" y="374"/>
      <point x="253" y="374"/>
      <point x="275" y="374" type="curve"/>
      <point x="275" y="374"/>
      <point x="275" y="374"/>
      <point x="275" y="374" type="curve"/>
    </contour>
    <contour>
      <point x="275" y="374"/>
      <point x="253" y="374"/>
      <point x="275" y="374" type="curve"/>
      <point x="275" y="374"/>
      <point x="275" y="374"/>
      <point x="275" y="374" type="curve"/>
      <point x="253" y="374"/>
      <point x="275" y="374"/>
      <point x="253" y="374" type="curve"/>
      <point x="253" y="374"/>
      <point x="253" y="374"/>
      <point x="253" y="374" type="curve"/>
    </contour>
    <contour>
      <point x="342" y="11"/>
      <point x="321" y="11"/>
      <point x="342" y="11" type="curve"/>
      <point x="342" y="11"/>
      <point x="342" y="11"/>
      <point x="342" y="11" type="curve"/>
      <point x="321" y="11"/>
      <point x="342" y="11"/>
      <point x="321" y="11" type="curve"/>
      <point x="321" y="11"/>
      <point x="321" y="11"/>
      <point x="321" y="11" type="curve"/>
    </contour>
    <contour>
      <point x="297" y="711"/>
      <point x="319" y="711"/>
      <point x="297" y="711" type="curve"/>
      <point x="297" y="711"/>
      <point x="297" y="711"/>
      <point x="297" y="711" type="curve"/>
      <point x="319" y="711"/>
      <point x="297" y="711"/>
      <point x="319" y="711" type="curve"/>
      <point x="319" y="711"/>
      <point x="319" y="711"/>
      <point x="319" y="711" type="curve"/>
    </contour>
    <contour>
      <point x="43" y="22"/>
      <point x="43" y="0"/>
      <point x="43" y="22" type="curve"/>
      <point x="43" y="22"/>
      <point x="43" y="22"/>
      <point x="43" y="22" type="curve"/>
      <point x="43" y="0"/>
      <point x="43" y="22"/>
      <point x="43" y="0" type="curve"/>
      <point x="43" y="0"/>
      <point x="43" y="0"/>
      <point x="43" y="0" type="curve"/>
    </contour>
    <contour>
      <point x="43" y="722"/>
      <point x="43" y="700"/>
      <point x="43" y="722" type="curve"/>
      <point x="43" y="722"/>
      <point x="43" y="722"/>
      <point x="43" y="722" type="curve"/>
      <point x="43" y="700"/>
      <point x="43" y="722"/>
      <point x="43" y="700" type="curve"/>
      <point x="43" y="700"/>
      <point x="43" y="700"/>
      <point x="43" y="700" type="curve"/>
    </contour>
    <contour>
      <point x="45" y="363"/>
      <point x="45" y="385"/>
      <point x="45" y="363" type="curve"/>
      <point x="121" y="363"/>
      <point x="198" y="363"/>
      <point x="275" y="363" type="curve"/>
      <point x="275" y="385"/>
      <point x="275" y="363"/>
      <point x="275" y="385" type="curve"/>
      <point x="198" y="385"/>
      <point x="121" y="385"/>
      <point x="45" y="385" type="curve"/>
    </contour>
    <contour>
      <point x="34" y="700"/>
      <point x="34" y="722"/>
      <point x="34" y="700" type="curve"/>
      <point x="129" y="700"/>
      <point x="224" y="700"/>
      <point x="319" y="700" type="curve"/>
      <point x="319" y="722"/>
      <point x="319" y="700"/>
      <point x="319" y="722" type="curve"/>
      <point x="224" y="722"/>
      <point x="129" y="722"/>
      <point x="34" y="722" type="curve"/>
    </contour>
    <contour>
      <point x="54" y="0"/>
      <point x="30" y="0"/>
      <point x="54" y="0" type="curve"/>
      <point x="54" y="0"/>
      <point x="54" y="722"/>
      <point x="54" y="722" type="curve"/>
      <point x="30" y="722"/>
      <point x="54" y="722"/>
      <point x="30" y="722" type="curve"/>
      <point x="30" y="481"/>
      <point x="30" y="241"/>
      <point x="30" y="0" type="curve"/>
    </contour>
    <contour>
      <point x="34" y="0"/>
      <point x="34" y="22"/>
      <point x="34" y="0" type="curve"/>
      <point x="137" y="0"/>
      <point x="240" y="0"/>
      <point x="342" y="0" type="curve"/>
      <point x="342" y="22"/>
      <point x="342" y="0"/>
      <point x="342" y="22" type="curve"/>
      <point x="240" y="22"/>
      <point x="137" y="22"/>
      <point x="34" y="22" type="curve"/>
    </contour>
  </outline>
</glyph>
<glyph name="F" format="1">
  <advance width="351"/>
  <unicode hex="0046"/>
  <outline>
    <contour>
      <point x="42" y="0"/>
      <point x="42" y="22"/>
      <point x="42" y="0" type="curve"/>
      <point x="42" y="0"/>
      <point x="42" y="0"/>
      <point x="42" y="0" type="curve"/>
      <point x="42" y="22"/>
      <point x="42" y="0"/>
      <point x="42" y="22" type="curve"/>
      <point x="42" y="22"/>
      <point x="42" y="22"/>
      <point x="42" y="22" type="curve"/>
    </contour>
    <contour>
      <point x="270" y="374"/>
      <point x="249" y="374"/>
      <point x="270" y="374" type="curve"/>
      <point x="270" y="374"/>
      <point x="270" y="374"/>
      <point x="270" y="374" type="curve"/>
      <point x="249" y="374"/>
      <point x="270" y="374"/>
      <point x="249" y="374" type="curve"/>
      <point x="249" y="374"/>
      <point x="249" y="374"/>
      <point x="249" y="374" type="curve"/>
    </contour>
    <contour>
      <point x="42" y="722"/>
      <point x="42" y="700"/>
      <point x="42" y="722" type="curve"/>
      <point x="42" y="722"/>
      <point x="42" y="722"/>
      <point x="42" y="722" type="curve"/>
      <point x="42" y="700"/>
      <point x="42" y="722"/>
      <point x="42" y="700" type="curve"/>
      <point x="42" y="700"/>
      <point x="42" y="700"/>
      <point x="42" y="700" type="curve"/>
    </contour>
    <contour>
      <point x="249" y="374"/>
      <point x="270" y="374"/>
      <point x="249" y="374" type="curve"/>
      <point x="249" y="374"/>
      <point x="249" y="374"/>
      <point x="249" y="374" type="curve"/>
      <point x="270" y="374"/>
      <point x="249" y="374"/>
      <point x="270" y="374" type="curve"/>
      <point x="270" y="374"/>
      <point x="270" y="374"/>
      <point x="270" y="374" type="curve"/>
    </contour>
    <contour>
      <point x="42" y="22"/>
      <point x="42" y="0"/>
      <point x="42" y="22" type="curve"/>
      <point x="42" y="22"/>
      <point x="42" y="22"/>
      <point x="42" y="22" type="curve"/>
      <point x="42" y="0"/>
      <point x="42" y="22"/>
      <point x="42" y="0" type="curve"/>
      <point x="42" y="0"/>
      <point x="42" y="0"/>
      <point x="42" y="0" type="curve"/>
    </contour>
    <contour>
      <point x="300" y="711"/>
      <point x="321" y="711"/>
      <point x="300" y="711" type="curve"/>
      <point x="300" y="711"/>
      <point x="300" y="711"/>
      <point x="300" y="711" type="curve"/>
      <point x="321" y="711"/>
      <point x="300" y="711"/>
      <point x="321" y="711" type="curve"/>
      <point x="321" y="711"/>
      <point x="321" y="711"/>
      <point x="321" y="711" type="curve"/>
    </contour>
    <contour>
      <point x="45" y="363"/>
      <point x="45" y="385"/>
      <point x="45" y="363" type="curve"/>
      <point x="120" y="363"/>
      <point x="195" y="363"/>
      <point x="270" y="363" type="curve"/>
      <point x="270" y="385"/>
      <point x="270" y="363"/>
      <point x="270" y="385" type="curve"/>
      <point x="195" y="385"/>
      <point x="120" y="385"/>
      <point x="45" y="385" type="curve"/>
    </contour>
    <contour>
      <point x="54" y="0"/>
      <point x="30" y="0"/>
      <point x="54" y="0" type="curve"/>
      <point x="54" y="0"/>
      <point x="54" y="722"/>
      <point x="54" y="722" type="curve"/>
      <point x="30" y="722"/>
      <point x="54" y="722"/>
      <point x="30" y="722" type="curve"/>
      <point x="30" y="481"/>
      <point x="30" y="241"/>
      <point x="30" y="0" type="curve"/>
    </contour>
    <contour>
      <point x="34" y="700"/>
      <point x="34" y="722"/>
      <point x="34" y="700" type="curve"/>
      <point x="130" y="700"/>
      <point x="226" y="700"/>
      <point x="321" y="700" type="curve"/>
      <point x="321" y="722"/>
      <point x="321" y="700"/>
      <point x="321" y="722" type="curve"/>
      <point x="226" y="722"/>
      <point x="130" y="722"/>
      <point x="34" y="722" type="curve"/>
    </contour>
  </outline>
</glyph>
<glyph name="H" format="1">
  <advance width="437"/>
  <unicode hex="0048"/>
  <outline>
    <contour>
      <point x="396" y="700"/>
      <point x="396" y="722"/>
      <point x="396" y="700" type="curve"/>
      <point x="396" y="700"/>
      <point x="396" y="700"/>
      <point x="396" y="700" type="curve"/>
      <point x="396" y="722"/>
      <point x="396" y="700"/>
      <point x="396" y="722" type="curve"/>
      <point x="396" y="722"/>
      <point x="396" y="722"/>
      <point x="396" y="722" type="curve"/>
    </contour>
    <contour>
      <point x="396" y="0"/>
      <point x="396" y="22"/>
      <point x="396" y="0" type="curve"/>
      <point x="396" y="0"/>
      <point x="396" y="0"/>
      <point x="396" y="0" type="curve"/>
      <point x="396" y="22"/>
      <point x="396" y="0"/>
      <point x="396" y="22" type="curve"/>
      <point x="396" y="22"/>
      <point x="396" y="22"/>
      <point x="396" y="22" type="curve"/>
    </contour>
    <contour>
      <point x="396" y="22"/>
      <point x="396" y="0"/>
      <point x="396" y="22" type="curve"/>
      <point x="396" y="22"/>
      <point x="396" y="22"/>
      <point x="396" y="22" type="curve"/>
      <point x="396" y="0"/>
      <point x="396" y="22"/>
      <point x="396" y="0" type="curve"/>
      <point x="396" y="0"/>
      <point x="396" y="0"/>
      <point x="396" y="0" type="curve"/>
    </contour>
    <contour>
      <point x="396" y="722"/>
      <point x="396" y="700"/>
      <point x="396" y="722" type="curve"/>
      <point x="396" y="722"/>
      <point x="396" y="722"/>
      <point x="396" y="722" type="curve"/>
      <point x="396" y="700"/>
      <point x="396" y="722"/>
      <point x="396" y="700" type="curve"/>
      <point x="396" y="700"/>
      <point x="396" y="700"/>
      <point x="396" y="700" type="curve"/>
    </contour>
    <contour>
      <point x="42" y="700"/>
      <point x="42" y="722"/>
      <point x="42" y="700" type="curve"/>
      <point x="42" y="700"/>
      <point x="42" y="700"/>
      <point x="42" y="700" type="curve"/>
      <point x="42" y="722"/>
      <point x="42" y="700"/>
      <point x="42" y="722" type="curve"/>
      <point x="42" y="722"/>
      <point x="42" y="722"/>
      <point x="42" y="722" type="curve"/>
    </contour>
    <contour>
      <point x="42" y="722"/>
      <point x="42" y="700"/>
      <point x="42" y="722" type="curve"/>
      <point x="42" y="722"/>
      <point x="42" y="722"/>
      <point x="42" y="722" type="curve"/>
      <point x="42" y="700"/>
      <point x="42" y="722"/>
      <point x="42" y="700" type="curve"/>
      <point x="42" y="700"/>
      <point x="42" y="700"/>
      <point x="42" y="700" type="curve"/>
    </contour>
    <contour>
      <point x="42" y="0"/>
      <point x="42" y="22"/>
      <point x="42" y="0" type="curve"/>
      <point x="42" y="0"/>
      <point x="42" y="0"/>
      <point x="42" y="0" type="curve"/>
      <point x="42" y="22"/>
      <point x="42" y="0"/>
      <point x="42" y="22" type="curve"/>
      <point x="42" y="22"/>
      <point x="42" y="22"/>
      <point x="42" y="22" type="curve"/>
    </contour>
    <contour>
      <point x="42" y="22"/>
      <point x="42" y="0"/>
      <point x="42" y="22" type="curve"/>
      <point x="42" y="22"/>
      <point x="42" y="22"/>
      <point x="42" y="22" type="curve"/>
      <point x="42" y="0"/>
      <point x="42" y="22"/>
      <point x="42" y="0" type="curve"/>
      <point x="42" y="0"/>
      <point x="42" y="0"/>
      <point x="42" y="0" type="curve"/>
    </contour>
    <contour>
      <point x="54" y="0"/>
      <point x="30" y="0"/>
      <point x="54" y="0" type="curve"/>
      <point x="54" y="0"/>
      <point x="54" y="722"/>
      <point x="54" y="722" type="curve"/>
      <point x="30" y="722"/>
      <point x="54" y="722"/>
      <point x="30" y="722" type="curve"/>
      <point x="30" y="481"/>
      <point x="30" y="241"/>
      <point x="30" y="0" type="curve"/>
    </contour>
    <contour>
      <point x="394" y="374"/>
      <point x="394" y="352"/>
      <point x="394" y="374" type="curve"/>
      <point x="277" y="374"/>
      <point x="159" y="374"/>
      <point x="42" y="374" type="curve"/>
      <point x="42" y="352"/>
      <point x="42" y="374"/>
      <point x="42" y="352" type="curve"/>
      <point x="159" y="352"/>
      <point x="277" y="352"/>
      <point x="394" y="352" type="curve"/>
    </contour>
    <contour>
      <point x="408" y="1"/>
      <point x="384" y="1"/>
      <point x="408" y="1" type="curve"/>
      <point x="408" y="241"/>
      <point x="408" y="481"/>
      <point x="408" y="721" type="curve"/>
      <point x="384" y="721"/>
      <point x="408" y="721"/>
      <point x="384" y="721" type="curve"/>
      <point x="384" y="721"/>
      <point x="384" y="1"/>
      <point x="384" y="1" type="curve"/>
    </contour>
  </outline>
</glyph>
<glyph name="J" format="1">
  <advance width="277"/>
  <unicode hex="004A"/>
  <outline>
    <contour>
      <point x="236" y="722"/>
      <point x="236" y="700"/>
      <point x="236" y="722" type="curve"/>
      <point x="236" y="722"/>
      <point x="236" y="722"/>
      <point x="236" y="722" type="curve"/>
      <point x="236" y="700"/>
      <point x="236" y="722"/>
      <point x="236" y="700" type="curve"/>
      <point x="236" y="700"/>
      <point x="236" y="700"/>
      <point x="236" y="700" type="curve"/>
    </contour>
    <contour>
      <point x="236" y="700"/>
      <point x="236" y="722"/>
      <point x="236" y="700" type="curve"/>
      <point x="236" y="700"/>
      <point x="236" y="700"/>
      <point x="236" y="700" type="curve"/>
      <point x="236" y="722"/>
      <point x="236" y="700"/>
      <point x="236" y="722" type="curve"/>
      <point x="236" y="722"/>
      <point x="236" y="722"/>
      <point x="236" y="722" type="curve"/>
    </contour>
    <contour>
      <point x="30" y="43"/>
      <point x="41" y="60"/>
      <point x="30" y="43" type="curve"/>
      <point x="48" y="25"/>
      <point x="76" y="0"/>
      <point x="114" y="0" type="curve"/>
      <point x="222" y="0"/>
      <point x="247" y="95"/>
      <point x="247" y="219" type="curve"/>
      <point x="247" y="386"/>
      <point x="247" y="554"/>
      <point x="247" y="722" type="curve"/>
      <point x="223" y="722"/>
      <point x="247" y="722"/>
      <point x="223" y="722" type="curve"/>
      <point x="223" y="554"/>
      <point x="223" y="386"/>
      <point x="223" y="219" type="curve"/>
      <point x="223" y="110"/>
      <point x="208" y="22"/>
      <point x="114" y="22" type="curve"/>
      <point x="82" y="22"/>
      <point x="64" y="41"/>
      <point x="41" y="60" type="curve"/>
    </contour>
  </outline>
</glyph>
<glyph name="P" format="1">
  <advance width="338"/>
  <unicode hex="0050"/>
  <outline>
    <contour>
      <point x="43" y="722"/>
      <point x="43" y="700"/>
      <point x="43" y="722" type="curve"/>
      <point x="43" y="722"/>
      <point x="43" y="722"/>
      <point x="43" y="722" type="curve"/>
      <point x="43" y="700"/>
      <point x="43" y="722"/>
      <point x="43" y="700" type="curve"/>
      <point x="43" y="700"/>
      <point x="43" y="700"/>
      <point x="43" y="700" type="curve"/>
    </contour>
    <contour>
      <point x="43" y="22"/>
      <point x="43" y="0"/>
      <point x="43" y="22" type="curve"/>
      <point x="43" y="22"/>
      <point x="43" y="22"/>
      <point x="43" y="22" type="curve"/>
      <point x="43" y="0"/>
      <point x="43" y="22"/>
      <point x="43" y="0" type="curve"/>
      <point x="43" y="0"/>
      <point x="43" y="0"/>
      <point x="43" y="0" type="curve"/>
    </contour>
    <contour>
      <point x="43" y="0"/>
      <point x="43" y="22"/>
      <point x="43" y="0" type="curve"/>
      <point x="43" y="0"/>
      <point x="43" y="0"/>
      <point x="43" y="0" type="curve"/>
      <point x="43" y="22"/>
      <point x="43" y="0"/>
      <point x="43" y="22" type="curve"/>
      <point x="43" y="22"/>
      <point x="43" y="22"/>
      <point x="43" y="22" type="curve"/>
    </contour>
    <contour>
      <point x="40" y="326"/>
      <point x="48" y="346"/>
      <point x="40" y="326" type="curve"/>
      <point x="74" y="301"/>
      <point x="108" y="280"/>
      <point x="151" y="280" type="curve"/>
      <point x="259" y="282"/>
      <point x="308" y="376"/>
      <point x="308" y="494" type="curve"/>
      <point x="308" y="621"/>
      <point x="252" y="722"/>
      <point x="135" y="722" type="curve"/>
      <point x="105" y="722"/>
      <point x="75" y="722"/>
      <point x="45" y="722" type="curve"/>
      <point x="45" y="700"/>
      <point x="45" y="722"/>
      <point x="45" y="700" type="curve"/>
      <point x="74" y="700"/>
      <point x="103" y="700"/>
      <point x="132" y="700" type="curve"/>
      <point x="237" y="700"/>
      <point x="284" y="608"/>
      <point x="284" y="493" type="curve"/>
      <point x="284" y="388"/>
      <point x="246" y="302"/>
      <point x="153" y="302" type="curve"/>
      <point x="110" y="302"/>
      <point x="82" y="320"/>
      <point x="48" y="346" type="curve"/>
    </contour>
    <contour>
      <point x="54" y="0"/>
      <point x="30" y="0"/>
      <point x="54" y="0" type="curve"/>
      <point x="54" y="241"/>
      <point x="54" y="481"/>
      <point x="54" y="722" type="curve"/>
      <point x="30" y="722"/>
      <point x="54" y="722"/>
      <point x="30" y="722" type="curve"/>
      <point x="30" y="481"/>
      <point x="30" y="241"/>
      <point x="30" y="0" type="curve"/>
    </contour>
  </outline>
</glyph>
<glyph name="S" format="1">
  <advance width="363"/>
  <unicode hex="0053"/>
  <outline>
    <contour>
      <point x="298" y="663"/>
      <point x="320" y="663"/>
      <point x="298" y="663" type="curve"/>
      <point x="298" y="663"/>
      <point x="298" y="663"/>
      <point x="298" y="663" type="curve"/>
      <point x="320" y="663"/>
      <point x="298" y="663"/>
      <point x="320" y="663" type="curve"/>
      <point x="320" y="663"/>
      <point x="320" y="663"/>
      <point x="320" y="663" type="curve"/>
    </contour>
    <contour>
      <point x="52" y="58"/>
      <point x="30" y="58"/>
      <point x="52" y="58" type="curve"/>
      <point x="52" y="58"/>
      <point x="52" y="58"/>
      <point x="52" y="58" type="curve"/>
      <point x="30" y="58"/>
      <point x="52" y="58"/>
      <point x="30" y="58" type="curve"/>
      <point x="30" y="58"/>
      <point x="30" y="58"/>
      <point x="30" y="58" type="curve"/>
    </contour>
    <contour>
      <point x="32" y="58"/>
      <point x="45" y="78"/>
      <point x="32" y="58" type="curve"/>
      <point x="74" y="20"/>
      <point x="114" y="0"/>
      <point x="170" y="0" type="curve"/>
      <point x="269" y="0"/>
      <point x="334" y="69"/>
      <point x="334" y="169" type="curve"/>
      <point x="334" y="267"/>
      <point x="276" y="325"/>
      <point x="195" y="382" type="curve"/>
      <point x="124" y="430"/>
      <point x="72" y="479"/>
      <point x="72" y="563" type="curve"/>
      <point x="72" y="641"/>
      <point x="110" y="700"/>
      <point x="182" y="700" type="curve"/>
      <point x="234" y="700"/>
      <point x="270" y="680"/>
      <point x="309" y="646" type="curve"/>
      <point x="320" y="663"/>
      <point x="309" y="646"/>
      <point x="320" y="663" type="curve"/>
      <point x="278" y="699"/>
      <point x="239" y="717"/>
      <point x="183" y="717" type="curve"/>
      <point x="97" y="717"/>
      <point x="48" y="651"/>
      <point x="48" y="562" type="curve"/>
      <point x="48" y="469"/>
      <point x="104" y="416"/>
      <point x="180" y="363" type="curve"/>
      <point x="256" y="312"/>
      <point x="309" y="259"/>
      <point x="309" y="169" type="curve"/>
      <point x="309" y="84"/>
      <point x="256" y="27"/>
      <point x="172" y="27" type="curve"/>
      <point x="121" y="27"/>
      <point x="84" y="45"/>
      <point x="45" y="78" type="curve"/>
    </contour>
  </outline>
</glyph>
<glyph name="U" format="1">
  <advance width="434"/>
  <unicode hex="0055"/>
  <outline>
    <contour>
      <point x="393" y="700"/>
      <point x="393" y="722"/>
      <point x="393" y="700" type="curve"/>
      <point x="393" y="700"/>
      <point x="393" y="700"/>
      <point x="393" y="700" type="curve"/>
      <point x="393" y="722"/>
      <point x="393" y="700"/>
      <point x="393" y="722" type="curve"/>
      <point x="393" y="722"/>
      <point x="393" y="722"/>
      <point x="393" y="722" type="curve"/>
    </contour>
    <contour>
      <point x="393" y="722"/>
      <point x="393" y="700"/>
      <point x="393" y="722" type="curve"/>
      <point x="393" y="722"/>
      <point x="393" y="722"/>
      <point x="393" y="722" type="curve"/>
      <point x="393" y="700"/>
      <point x="393" y="722"/>
      <point x="393" y="700" type="curve"/>
      <point x="393" y="700"/>
      <point x="393" y="700"/>
      <point x="393" y="700" type="curve"/>
    </contour>
    <contour>
      <point x="43" y="722"/>
      <point x="43" y="700"/>
      <point x="43" y="722" type="curve"/>
      <point x="43" y="722"/>
      <point x="43" y="722"/>
      <point x="43" y="722" type="curve"/>
      <point x="43" y="700"/>
      <point x="43" y="722"/>
      <point x="43" y="700" type="curve"/>
      <point x="43" y="700"/>
      <point x="43" y="700"/>
      <point x="43" y="700" type="curve"/>
    </contour>
    <contour>
      <point x="43" y="700"/>
      <point x="43" y="722"/>
      <point x="43" y="700" type="curve"/>
      <point x="43" y="700"/>
      <point x="43" y="700"/>
      <point x="43" y="700" type="curve"/>
      <point x="43" y="722"/>
      <point x="43" y="700"/>
      <point x="43" y="722" type="curve"/>
      <point x="43" y="722"/>
      <point x="43" y="722"/>
      <point x="43" y="722" type="curve"/>
    </contour>
    <contour>
      <point x="30" y="722"/>
      <point x="54" y="722"/>
      <point x="30" y="722" type="curve"/>
      <point x="30" y="572"/>
      <point x="30" y="421"/>
      <point x="30" y="271" type="curve"/>
      <point x="30" y="105"/>
      <point x="70" y="-1"/>
      <point x="218" y="-1" type="curve"/>
      <point x="363" y="-1"/>
      <point x="404" y="102"/>
      <point x="404" y="263" type="curve"/>
      <point x="404" y="416"/>
      <point x="404" y="569"/>
      <point x="404" y="722" type="curve"/>
      <point x="380" y="722"/>
      <point x="404" y="722"/>
      <point x="380" y="722" type="curve"/>
      <point x="380" y="568"/>
      <point x="380" y="413"/>
      <point x="380" y="259" type="curve"/>
      <point x="380" y="116"/>
      <point x="348" y="23"/>
      <point x="220" y="23" type="curve"/>
      <point x="86" y="23"/>
      <point x="54" y="123"/>
      <point x="54" y="275" type="curve"/>
      <point x="54" y="424"/>
      <point x="54" y="573"/>
      <point x="54" y="722" type="curve"/>
    </contour>
  </outline>
</glyph>
<glyph name="W" format="1">
  <advance width="618"/>
  <unicode hex="0057"/>
  <outline>
    <contour>
      <point x="312" y="700"/>
      <point x="312" y="722"/>
      <point x="312" y="700" type="curve"/>
      <point x="312" y="700"/>
      <point x="312" y="700"/>
      <point x="312" y="700" type="curve"/>
      <point x="312" y="722"/>
      <point x="312" y="700"/>
      <point x="312" y="722" type="curve"/>
      <point x="312" y="722"/>
      <point x="312" y="722"/>
      <point x="312" y="722" type="curve"/>
    </contour>
    <contour>
      <point x="312" y="722"/>
      <point x="312" y="700"/>
      <point x="312" y="722" type="curve"/>
      <point x="312" y="722"/>
      <point x="312" y="722"/>
      <point x="312" y="722" type="curve"/>
      <point x="312" y="700"/>
      <point x="312" y="722"/>
      <point x="312" y="700" type="curve"/>
      <point x="312" y="700"/>
      <point x="312" y="700"/>
      <point x="312" y="700" type="curve"/>
    </contour>
    <contour>
      <point x="51" y="700"/>
      <point x="51" y="722"/>
      <point x="51" y="700" type="curve"/>
      <point x="51" y="700"/>
      <point x="51" y="700"/>
      <point x="51" y="700" type="curve"/>
      <point x="51" y="722"/>
      <point x="51" y="700"/>
      <point x="51" y="722" type="curve"/>
      <point x="51" y="722"/>
      <point x="51" y="722"/>
      <point x="51" y="722" type="curve"/>
    </contour>
    <contour>
      <point x="51" y="722"/>
      <point x="51" y="700"/>
      <point x="51" y="722" type="curve"/>
      <point x="51" y="722"/>
      <point x="51" y="722"/>
      <point x="51" y="722" type="curve"/>
      <point x="51" y="700"/>
      <point x="51" y="722"/>
      <point x="51" y="700" type="curve"/>
      <point x="51" y="700"/>
      <point x="51" y="700"/>
      <point x="51" y="700" type="curve"/>
    </contour>
    <contour>
      <point x="567" y="722"/>
      <point x="567" y="700"/>
      <point x="567" y="722" type="curve"/>
      <point x="567" y="722"/>
      <point x="567" y="722"/>
      <point x="567" y="722" type="curve"/>
      <point x="567" y="700"/>
      <point x="567" y="722"/>
      <point x="567" y="700" type="curve"/>
      <point x="567" y="700"/>
      <point x="567" y="700"/>
      <point x="567" y="700" type="curve"/>
    </contour>
    <contour>
      <point x="567" y="700"/>
      <point x="567" y="722"/>
      <point x="567" y="700" type="curve"/>
      <point x="567" y="700"/>
      <point x="567" y="700"/>
      <point x="567" y="700" type="curve"/>
      <point x="567" y="722"/>
      <point x="567" y="700"/>
      <point x="567" y="722" type="curve"/>
      <point x="567" y="722"/>
      <point x="567" y="722"/>
      <point x="567" y="722" type="curve"/>
    </contour>
    <contour>
      <point x="181" y="0"/>
      <point x="163" y="0"/>
      <point x="181" y="0" type="curve"/>
      <point x="228" y="241"/>
      <point x="275" y="481"/>
      <point x="322" y="722" type="curve"/>
      <point x="299" y="722"/>
      <point x="322" y="722"/>
      <point x="299" y="722" type="curve"/>
      <point x="254" y="481"/>
      <point x="208" y="241"/>
      <point x="163" y="0" type="curve"/>
    </contour>
    <contour>
      <point x="304" y="722"/>
      <point x="327" y="722"/>
      <point x="304" y="722" type="curve"/>
      <point x="347" y="481"/>
      <point x="389" y="241"/>
      <point x="431" y="0" type="curve"/>
      <point x="450" y="0"/>
      <point x="431" y="0"/>
      <point x="450" y="0" type="curve"/>
      <point x="409" y="241"/>
      <point x="368" y="481"/>
      <point x="327" y="722" type="curve"/>
    </contour>
    <contour>
      <point x="30" y="722"/>
      <point x="55" y="722"/>
      <point x="30" y="722" type="curve"/>
      <point x="73" y="481"/>
      <point x="116" y="241"/>
      <point x="159" y="0" type="curve"/>
      <point x="177" y="0"/>
      <point x="159" y="0"/>
      <point x="177" y="0" type="curve"/>
      <point x="136" y="241"/>
      <point x="96" y="481"/>
      <point x="55" y="722" type="curve"/>
    </contour>
    <contour>
      <point x="563" y="722"/>
      <point x="588" y="722"/>
      <point x="563" y="722" type="curve"/>
      <point x="520" y="481"/>
      <point x="478" y="241"/>
      <point x="436" y="0" type="curve"/>
      <point x="454" y="0"/>
      <point x="436" y="0"/>
      <point x="454" y="0" type="curve"/>
      <point x="499" y="241"/>
      <point x="543" y="481"/>
      <point x="588" y="722" type="curve"/>
    </contour>
  </outline>
</glyph>
<glyph name="X" format="1">
  <advance width="458"/>
  <unicode hex="0058"/>
  <outline>
    <contour>
      <point x="54" y="0"/>
      <point x="54" y="22"/>
      <point x="54" y="0" type="curve"/>
      <point x="54" y="0"/>
      <point x="54" y="0"/>
      <point x="54" y="0" type="curve"/>
      <point x="54" y="22"/>
      <point x="54" y="0"/>
      <point x="54" y="22" type="curve"/>
      <point x="54" y="22"/>
      <point x="54" y="22"/>
      <point x="54" y="22" type="curve"/>
    </contour>
    <contour>
      <point x="54" y="22"/>
      <point x="54" y="0"/>
      <point x="54" y="22" type="curve"/>
      <point x="54" y="22"/>
      <point x="54" y="22"/>
      <point x="54" y="22" type="curve"/>
      <point x="54" y="0"/>
      <point x="54" y="22"/>
      <point x="54" y="0" type="curve"/>
      <point x="54" y="0"/>
      <point x="54" y="0"/>
      <point x="54" y="0" type="curve"/>
    </contour>
    <contour>
      <point x="403" y="0"/>
      <point x="403" y="22"/>
      <point x="403" y="0" type="curve"/>
      <point x="403" y="0"/>
      <point x="403" y="0"/>
      <point x="403" y="0" type="curve"/>
      <point x="403" y="22"/>
      <point x="403" y="0"/>
      <point x="403" y="22" type="curve"/>
      <point x="403" y="22"/>
      <point x="403" y="22"/>
      <point x="403" y="22" type="curve"/>
    </contour>
    <contour>
      <point x="403" y="22"/>
      <point x="403" y="0"/>
      <point x="403" y="22" type="curve"/>
      <point x="403" y="22"/>
      <point x="403" y="22"/>
      <point x="403" y="22" type="curve"/>
      <point x="403" y="0"/>
      <point x="403" y="22"/>
      <point x="403" y="0" type="curve"/>
      <point x="403" y="0"/>
      <point x="403" y="0"/>
      <point x="403" y="0" type="curve"/>
    </contour>
    <contour>
      <point x="385" y="700"/>
      <point x="385" y="722"/>
      <point x="385" y="700" type="curve"/>
      <point x="385" y="700"/>
      <point x="385" y="700"/>
      <point x="385" y="700" type="curve"/>
      <point x="385" y="722"/>
      <point x="385" y="700"/>
      <point x="385" y="722" type="curve"/>
      <point x="385" y="722"/>
      <point x="385" y="722"/>
      <point x="385" y="722" type="curve"/>
    </contour>
    <contour>
      <point x="385" y="722"/>
      <point x="385" y="700"/>
      <point x="385" y="722" type="curve"/>
      <point x="385" y="722"/>
      <point x="385" y="722"/>
      <point x="385" y="722" type="curve"/>
      <point x="385" y="700"/>
      <point x="385" y="722"/>
      <point x="385" y="700" type="curve"/>
      <point x="385" y="700"/>
      <point x="385" y="700"/>
      <point x="385" y="700" type="curve"/>
    </contour>
    <contour>
      <point x="75" y="722"/>
      <point x="75" y="700"/>
      <point x="75" y="722" type="curve"/>
      <point x="75" y="722"/>
      <point x="75" y="722"/>
      <point x="75" y="722" type="curve"/>
      <point x="75" y="700"/>
      <point x="75" y="722"/>
      <point x="75" y="700" type="curve"/>
      <point x="75" y="700"/>
      <point x="75" y="700"/>
      <point x="75" y="700" type="curve"/>
    </contour>
    <contour>
      <point x="75" y="700"/>
      <point x="75" y="722"/>
      <point x="75" y="700" type="curve"/>
      <point x="75" y="700"/>
      <point x="75" y="700"/>
      <point x="75" y="700" type="curve"/>
      <point x="75" y="722"/>
      <point x="75" y="700"/>
      <point x="75" y="722" type="curve"/>
      <point x="75" y="722"/>
      <point x="75" y="722"/>
      <point x="75" y="722" type="curve"/>
    </contour>
    <contour>
      <point x="380" y="722"/>
      <point x="408" y="722"/>
      <point x="380" y="722" type="curve"/>
      <point x="263" y="481"/>
      <point x="147" y="241"/>
      <point x="30" y="0" type="curve"/>
      <point x="61" y="0"/>
      <point x="30" y="0"/>
      <point x="61" y="0" type="curve"/>
      <point x="177" y="241"/>
      <point x="292" y="481"/>
      <point x="408" y="722" type="curve"/>
    </contour>
    <contour>
      <point x="54" y="722"/>
      <point x="82" y="722"/>
      <point x="54" y="722" type="curve"/>
      <point x="168" y="481"/>
      <point x="283" y="241"/>
      <point x="398" y="0" type="curve"/>
      <point x="428" y="0"/>
      <point x="398" y="0"/>
      <point x="428" y="0" type="curve"/>
      <point x="313" y="241"/>
      <point x="197" y="481"/>
      <point x="82" y="722" type="curve"/>
    </contour>
  </outline>
</glyph>
<glyph name="Y" format="1">
  <advance width="425"/>
  <unicode hex="0059"/>
  <outline>
    <contour>
      <point x="208" y="22"/>
      <point x="208" y="0"/>
      <point x="208" y="22" type="curve"/>
      <point x="208" y="22"/>
      <point x="208" y="22"/>
      <point x="208" y="22" type="curve"/>
      <point x="208" y="0"/>
      <point x="208" y="22"/>
      <point x="208" y="0" type="curve"/>
      <point x="208" y="0"/>
      <point x="208" y="0"/>
      <point x="208" y="0" type="curve"/>
    </contour>
    <contour>
      <point x="208" y="0"/>
      <point x="208" y="22"/>
      <point x="208" y="0" type="curve"/>
      <point x="208" y="0"/>
      <point x="208" y="0"/>
      <point x="208" y="0" type="curve"/>
      <point x="208" y="22"/>
      <point x="208" y="0"/>
      <point x="208" y="22" type="curve"/>
      <point x="208" y="22"/>
      <point x="208" y="22"/>
      <point x="208" y="22" type="curve"/>
    </contour>
    <contour>
      <point x="373" y="722"/>
      <point x="373" y="700"/>
      <point x="373" y="722" type="curve"/>
      <point x="373" y="722"/>
      <point x="373" y="722"/>
      <point x="373" y="722" type="curve"/>
      <point x="373" y="700"/>
      <point x="373" y="722"/>
      <point x="373" y="700" type="curve"/>
      <point x="373" y="700"/>
      <point x="373" y="700"/>
      <point x="373" y="700" type="curve"/>
    </contour>
    <contour>
      <point x="51" y="722"/>
      <point x="51" y="700"/>
      <point x="51" y="722" type="curve"/>
      <point x="51" y="722"/>
      <point x="51" y="722"/>
      <point x="51" y="722" type="curve"/>
      <point x="51" y="700"/>
      <point x="51" y="722"/>
      <point x="51" y="700" type="curve"/>
      <point x="51" y="700"/>
      <point x="51" y="700"/>
      <point x="51" y="700" type="curve"/>
    </contour>
    <contour>
      <point x="51" y="700"/>
      <point x="51" y="722"/>
      <point x="51" y="700" type="curve"/>
      <point x="51" y="700"/>
      <point x="51" y="700"/>
      <point x="51" y="700" type="curve"/>
      <point x="51" y="722"/>
      <point x="51" y="700"/>
      <point x="51" y="722" type="curve"/>
      <point x="51" y="722"/>
      <point x="51" y="722"/>
      <point x="51" y="722" type="curve"/>
    </contour>
    <contour>
      <point x="373" y="700"/>
      <point x="373" y="722"/>
      <point x="373" y="700" type="curve"/>
      <point x="373" y="700"/>
      <point x="373" y="700"/>
      <point x="373" y="700" type="curve"/>
      <point x="373" y="722"/>
      <point x="373" y="700"/>
      <point x="373" y="722" type="curve"/>
      <point x="373" y="722"/>
      <point x="373" y="722"/>
      <point x="373" y="722" type="curve"/>
    </contour>
    <contour>
      <point x="30" y="722"/>
      <point x="56" y="722"/>
      <point x="30" y="722" type="curve"/>
      <point x="85" y="594"/>
      <point x="140" y="465"/>
      <point x="194" y="337" type="curve"/>
      <point x="221" y="337"/>
      <point x="194" y="337"/>
      <point x="221" y="337" type="curve"/>
      <point x="166" y="465"/>
      <point x="111" y="594"/>
      <point x="56" y="722" type="curve"/>
    </contour>
    <contour>
      <point x="368" y="722"/>
      <point x="394" y="722"/>
      <point x="368" y="722" type="curve"/>
      <point x="310" y="594"/>
      <point x="252" y="465"/>
      <point x="194" y="337" type="curve"/>
      <point x="221" y="337"/>
      <point x="194" y="337"/>
      <point x="221" y="337" type="curve"/>
      <point x="279" y="465"/>
      <point x="336" y="594"/>
      <point x="394" y="722" type="curve"/>
    </contour>
    <contour>
      <point x="221" y="0"/>
      <point x="194" y="0"/>
      <point x="221" y="0" type="curve"/>
      <point x="221" y="115"/>
      <point x="221" y="231"/>
      <point x="221" y="346" type="curve"/>
      <point x="194" y="346"/>
      <point x="221" y="346"/>
      <point x="194" y="346" type="curve"/>
      <point x="194" y="231"/>
      <point x="194" y="115"/>
      <point x="194" y="0" type="curve"/>
    </contour>
  </outline>
</glyph>
<glyph name="bracketright" format="1">
  <advance width="175"/>
  <unicode hex="005D"/>
  <outline>
    <contour>
      <point x="30" y="747"/>
      <point x="30" y="771"/>
      <point x="30" y="747" type="curve"/>
      <point x="66" y="747"/>
      <point x="101" y="747"/>
      <point x="137" y="747" type="curve"/>
      <point x="134" y="750"/>
      <point x="131" y="752"/>
      <point x="128" y="756" type="curve"/>
      <point x="126" y="759"/>
      <point x="123" y="762"/>
      <point x="120" y="765" type="curve"/>
      <point x="120" y="470"/>
      <point x="120" y="175"/>
      <point x="120" y="-120" type="curve"/>
      <point x="123" y="-116"/>
      <point x="126" y="-113"/>
      <point x="129" y="-109" type="curve"/>
      <point x="132" y="-106"/>
      <point x="135" y="-104"/>
      <point x="138" y="-100" type="curve"/>
      <point x="102" y="-100"/>
      <point x="66" y="-100"/>
      <point x="30" y="-100" type="curve"/>
      <point x="30" y="-124"/>
      <point x="30" y="-100"/>
      <point x="30" y="-124" type="curve"/>
      <point x="66" y="-124"/>
      <point x="102" y="-124"/>
      <point x="138" y="-124" type="curve"/>
      <point x="144" y="-124"/>
      <point x="138" y="-124"/>
      <point x="144" y="-124" type="curve"/>
      <point x="144" y="-120"/>
      <point x="144" y="-124"/>
      <point x="144" y="-120" type="curve"/>
      <point x="144" y="175"/>
      <point x="144" y="470"/>
      <point x="144" y="765" type="curve"/>
      <point x="144" y="771"/>
      <point x="144" y="765"/>
      <point x="144" y="771" type="curve"/>
      <point x="137" y="771"/>
      <point x="144" y="771"/>
      <point x="137" y="771" type="curve"/>
      <point x="101" y="771"/>
      <point x="66" y="771"/>
      <point x="30" y="771" type="curve"/>
    </contour>
  </outline>
</glyph>
<glyph name="b" format="1">
  <advance width="378"/>
  <unicode hex="0062"/>
  <outline>
    <contour>
      <point x="43" y="800"/>
      <point x="43" y="778"/>
      <point x="43" y="800" type="curve"/>
      <point x="43" y="800"/>
      <point x="43" y="800"/>
      <point x="43" y="800" type="curve"/>
      <point x="43" y="778"/>
      <point x="43" y="800"/>
      <point x="43" y="778" type="curve"/>
      <point x="43" y="778"/>
      <point x="43" y="778"/>
      <point x="43" y="778" type="curve"/>
    </contour>
    <contour>
      <point x="49" y="408"/>
      <point x="37" y="424"/>
      <point x="49" y="408" type="curve"/>
      <point x="73" y="451"/>
      <point x="120" y="511"/>
      <point x="191" y="511" type="curve"/>
      <point x="304" y="511"/>
      <point x="324" y="394"/>
      <point x="324" y="263" type="curve"/>
      <point x="326" y="134"/>
      <point x="300" y="21"/>
      <point x="191" y="22" type="curve"/>
      <point x="127" y="22"/>
      <point x="86" y="57"/>
      <point x="51" y="110" type="curve"/>
      <point x="35" y="97"/>
      <point x="51" y="110"/>
      <point x="35" y="97" type="curve"/>
      <point x="73" y="36"/>
      <point x="121" y="0"/>
      <point x="192" y="0" type="curve"/>
      <point x="314" y="0"/>
      <point x="348" y="123"/>
      <point x="348" y="264" type="curve"/>
      <point x="348" y="407"/>
      <point x="316" y="533"/>
      <point x="193" y="533" type="curve"/>
      <point x="117" y="533"/>
      <point x="63" y="471"/>
      <point x="37" y="424" type="curve"/>
    </contour>
    <contour>
      <point x="54" y="0"/>
      <point x="30" y="0"/>
      <point x="54" y="0" type="curve"/>
      <point x="54" y="267"/>
      <point x="54" y="533"/>
      <point x="54" y="800" type="curve"/>
      <point x="30" y="800"/>
      <point x="54" y="800"/>
      <point x="30" y="800" type="curve"/>
      <point x="30" y="533"/>
      <point x="30" y="267"/>
      <point x="30" y="0" type="curve"/>
    </contour>
    <contour>
      <point x="43" y="22"/>
      <point x="43" y="0"/>
      <point x="43" y="22" type="curve"/>
      <point x="43" y="22"/>
      <point x="43" y="22"/>
      <point x="43" y="22" type="curve"/>
      <point x="43" y="0"/>
      <point x="43" y="22"/>
      <point x="43" y="0" type="curve"/>
      <point x="43" y="0"/>
      <point x="43" y="0"/>
      <point x="43" y="0" type="curve"/>
    </contour>
  </outline>
</glyph>
<glyph name="f" format="1">
  <advance width="362"/>
  <unicode hex="0066"/>
  <outline>
    <contour>
      <point x="310" y="772"/>
      <point x="332" y="772"/>
      <point x="310" y="772" type="curve"/>
      <point x="310" y="772"/>
      <point x="310" y="772"/>
      <point x="310" y="772" type="curve"/>
      <point x="332" y="772"/>
      <point x="310" y="772"/>
      <point x="332" y="772" type="curve"/>
      <point x="332" y="772"/>
      <point x="332" y="772"/>
      <point x="332" y="772" type="curve"/>
    </contour>
    <contour>
      <point x="160" y="0"/>
      <point x="160" y="22"/>
      <point x="160" y="0" type="curve"/>
      <point x="160" y="0"/>
      <point x="160" y="0"/>
      <point x="160" y="0" type="curve"/>
      <point x="160" y="22"/>
      <point x="160" y="0"/>
      <point x="160" y="22" type="curve"/>
      <point x="160" y="22"/>
      <point x="160" y="22"/>
      <point x="160" y="22" type="curve"/>
    </contour>
    <contour>
      <point x="160" y="22"/>
      <point x="160" y="0"/>
      <point x="160" y="22" type="curve"/>
      <point x="160" y="22"/>
      <point x="160" y="22"/>
      <point x="160" y="22" type="curve"/>
      <point x="160" y="0"/>
      <point x="160" y="22"/>
      <point x="160" y="0" type="curve"/>
      <point x="160" y="0"/>
      <point x="160" y="0"/>
      <point x="160" y="0" type="curve"/>
    </contour>
    <contour>
      <point x="30" y="487"/>
      <point x="30" y="509"/>
      <point x="30" y="487" type="curve"/>
      <point x="30" y="487"/>
      <point x="325" y="487"/>
      <point x="325" y="487" type="curve"/>
      <point x="325" y="509"/>
      <point x="325" y="487"/>
      <point x="325" y="509" type="curve"/>
      <point x="325" y="509"/>
      <point x="30" y="509"/>
      <point x="30" y="509" type="curve"/>
    </contour>
    <contour>
      <point x="172" y="0"/>
      <point x="147" y="0"/>
      <point x="172" y="0" type="curve"/>
      <point x="172" y="0"/>
      <point x="172" y="640"/>
      <point x="172" y="640" type="curve"/>
      <point x="172" y="718"/>
      <point x="188" y="783"/>
      <point x="255" y="783" type="curve"/>
      <point x="280" y="783"/>
      <point x="302" y="769"/>
      <point x="322" y="755" type="curve"/>
      <point x="332" y="772"/>
      <point x="322" y="755"/>
      <point x="332" y="772" type="curve"/>
      <point x="310" y="788"/>
      <point x="283" y="800"/>
      <point x="255" y="800" type="curve"/>
      <point x="176" y="800"/>
      <point x="147" y="729"/>
      <point x="147" y="640" type="curve"/>
      <point x="147" y="640"/>
      <point x="147" y="0"/>
      <point x="147" y="0" type="curve"/>
    </contour>
  </outline>
</glyph>
<glyph name="h" format="1">
  <advance width="345"/>
  <unicode hex="0068"/>
  <outline>
    <contour>
      <point x="302" y="0"/>
      <point x="302" y="22"/>
      <point x="302" y="0" type="curve"/>
      <point x="302" y="0"/>
      <point x="302" y="0"/>
      <point x="302" y="0" type="curve"/>
      <point x="302" y="22"/>
      <point x="302" y="0"/>
      <point x="302" y="22" type="curve"/>
      <point x="302" y="22"/>
      <point x="302" y="22"/>
      <point x="302" y="22" type="curve"/>
    </contour>
    <contour>
      <point x="42" y="0"/>
      <point x="42" y="22"/>
      <point x="42" y="0" type="curve"/>
      <point x="42" y="0"/>
      <point x="42" y="0"/>
      <point x="42" y="0" type="curve"/>
      <point x="42" y="22"/>
      <point x="42" y="0"/>
      <point x="42" y="22" type="curve"/>
      <point x="42" y="22"/>
      <point x="42" y="22"/>
      <point x="42" y="22" type="curve"/>
    </contour>
    <contour>
      <point x="42" y="800"/>
      <point x="42" y="778"/>
      <point x="42" y="800" type="curve"/>
      <point x="42" y="800"/>
      <point x="42" y="800"/>
      <point x="42" y="800" type="curve"/>
      <point x="42" y="778"/>
      <point x="42" y="800"/>
      <point x="42" y="778" type="curve"/>
      <point x="42" y="778"/>
      <point x="42" y="778"/>
      <point x="42" y="778" type="curve"/>
    </contour>
    <contour>
      <point x="42" y="22"/>
      <point x="42" y="0"/>
      <point x="42" y="22" type="curve"/>
      <point x="42" y="22"/>
      <point x="42" y="22"/>
      <point x="42" y="22" type="curve"/>
      <point x="42" y="0"/>
      <point x="42" y="22"/>
      <point x="42" y="0" type="curve"/>
      <point x="42" y="0"/>
      <point x="42" y="0"/>
      <point x="42" y="0" type="curve"/>
    </contour>
    <contour>
      <point x="302" y="22"/>
      <point x="302" y="0"/>
      <point x="302" y="22" type="curve"/>
      <point x="302" y="22"/>
      <point x="302" y="22"/>
      <point x="302" y="22" type="curve"/>
      <point x="302" y="0"/>
      <point x="302" y="22"/>
      <point x="302" y="0" type="curve"/>
      <point x="302" y="0"/>
      <point x="302" y="0"/>
      <point x="302" y="0" type="curve"/>
    </contour>
    <contour>
      <point x="49" y="354"/>
      <point x="37" y="365"/>
      <point x="49" y="354" type="curve"/>
      <point x="70" y="431"/>
      <point x="113" y="511"/>
      <point x="189" y="511" type="curve"/>
      <point x="274" y="511"/>
      <point x="290" y="438"/>
      <point x="290" y="341" type="curve"/>
      <point x="290" y="228"/>
      <point x="290" y="114"/>
      <point x="290" y="0" type="curve"/>
      <point x="315" y="0"/>
      <point x="290" y="0"/>
      <point x="315" y="0" type="curve"/>
      <point x="315" y="115"/>
      <point x="315" y="229"/>
      <point x="315" y="344" type="curve"/>
      <point x="315" y="454"/>
      <point x="289" y="533"/>
      <point x="192" y="533" type="curve"/>
      <point x="108" y="533"/>
      <point x="53" y="452"/>
      <point x="37" y="365" type="curve"/>
    </contour>
    <contour>
      <point x="54" y="0"/>
      <point x="30" y="0"/>
      <point x="54" y="0" type="curve"/>
      <point x="54" y="267"/>
      <point x="54" y="533"/>
      <point x="54" y="800" type="curve"/>
      <point x="30" y="800"/>
      <point x="54" y="800"/>
      <point x="30" y="800" type="curve"/>
      <point x="30" y="533"/>
      <point x="30" y="267"/>
      <point x="30" y="0" type="curve"/>
    </contour>
  </outline>
</glyph>
<glyph name="i" format="1">
  <advance width="89"/>
  <unicode hex="0069"/>
  <outline>
    <contour>
      <point x="45" y="22"/>
      <point x="45" y="0"/>
      <point x="45" y="22" type="curve"/>
      <point x="45" y="22"/>
      <point x="45" y="22"/>
      <point x="45" y="22" type="curve"/>
      <point x="45" y="0"/>
      <point x="45" y="22"/>
      <point x="45" y="0" type="curve"/>
      <point x="45" y="0"/>
      <point x="45" y="0"/>
      <point x="45" y="0" type="curve"/>
    </contour>
    <contour>
      <point x="45" y="0"/>
      <point x="45" y="22"/>
      <point x="45" y="0" type="curve"/>
      <point x="45" y="0"/>
      <point x="45" y="0"/>
      <point x="45" y="0" type="curve"/>
      <point x="45" y="22"/>
      <point x="45" y="0"/>
      <point x="45" y="22" type="curve"/>
      <point x="45" y="22"/>
      <point x="45" y="22"/>
      <point x="45" y="22" type="curve"/>
    </contour>
    <contour>
      <point x="45" y="533"/>
      <point x="45" y="511"/>
      <point x="45" y="533" type="curve"/>
      <point x="45" y="533"/>
      <point x="45" y="533"/>
      <point x="45" y="533" type="curve"/>
      <point x="45" y="511"/>
      <point x="45" y="533"/>
      <point x="45" y="511" type="curve"/>
      <point x="45" y="511"/>
      <point x="45" y="511"/>
      <point x="45" y="511" type="curve"/>
    </contour>
    <contour>
      <point x="58" y="670"/>
      <point x="30" y="670"/>
      <point x="58" y="670" type="curve"/>
      <point x="58" y="679"/>
      <point x="52" y="684"/>
      <point x="43" y="684" type="curve"/>
      <point x="35" y="684"/>
      <point x="30" y="678"/>
      <point x="30" y="670" type="curve"/>
      <point x="58" y="670"/>
      <point x="30" y="670"/>
      <point x="58" y="670" type="curve"/>
      <point x="58" y="661"/>
      <point x="52" y="657"/>
      <point x="43" y="657" type="curve"/>
      <point x="35" y="657"/>
      <point x="30" y="662"/>
      <point x="30" y="670" type="curve"/>
    </contour>
    <contour>
      <point x="58" y="0"/>
      <point x="32" y="0"/>
      <point x="58" y="0" type="curve"/>
      <point x="58" y="178"/>
      <point x="58" y="355"/>
      <point x="58" y="533" type="curve"/>
      <point x="32" y="533"/>
      <point x="58" y="533"/>
      <point x="32" y="533" type="curve"/>
      <point x="32" y="355"/>
      <point x="32" y="178"/>
      <point x="32" y="0" type="curve"/>
    </contour>
  </outline>
</glyph>
<glyph name="j" format="1">
  <advance width="200"/>
  <unicode hex="006A"/>
  <outline>
    <contour>
      <point x="153" y="533"/>
      <point x="153" y="511"/>
      <point x="153" y="533" type="curve"/>
      <point x="153" y="533"/>
      <point x="153" y="533"/>
      <point x="153" y="533" type="curve"/>
      <point x="153" y="511"/>
      <point x="153" y="533"/>
      <point x="153" y="511" type="curve"/>
      <point x="153" y="511"/>
      <point x="153" y="511"/>
      <point x="153" y="511" type="curve"/>
    </contour>
    <contour>
      <point x="169" y="670"/>
      <point x="141" y="670"/>
      <point x="169" y="670" type="curve"/>
      <point x="169" y="679"/>
      <point x="163" y="684"/>
      <point x="154" y="684" type="curve"/>
      <point x="145" y="684"/>
      <point x="141" y="678"/>
      <point x="141" y="670" type="curve"/>
      <point x="169" y="670"/>
      <point x="141" y="670"/>
      <point x="169" y="670" type="curve"/>
      <point x="169" y="661"/>
      <point x="163" y="657"/>
      <point x="154" y="657" type="curve"/>
      <point x="145" y="657"/>
      <point x="141" y="662"/>
      <point x="141" y="670" type="curve"/>
    </contour>
    <contour>
      <point x="30" y="-297"/>
      <point x="33" y="-276"/>
      <point x="30" y="-297" type="curve"/>
      <point x="36" y="-298"/>
      <point x="43" y="-295"/>
      <point x="51" y="-295" type="curve"/>
      <point x="128" y="-295"/>
      <point x="166" y="-227"/>
      <point x="166" y="-142" type="curve"/>
      <point x="166" y="83"/>
      <point x="166" y="308"/>
      <point x="166" y="533" type="curve"/>
      <point x="142" y="533"/>
      <point x="166" y="533"/>
      <point x="142" y="533" type="curve"/>
      <point x="142" y="308"/>
      <point x="142" y="83"/>
      <point x="142" y="-142" type="curve"/>
      <point x="142" y="-215"/>
      <point x="117" y="-278"/>
      <point x="52" y="-278" type="curve"/>
      <point x="46" y="-278"/>
      <point x="37" y="-277"/>
      <point x="33" y="-276" type="curve"/>
    </contour>
  </outline>
</glyph>
<glyph name="k" format="1">
  <advance width="370"/>
  <unicode hex="006B"/>
  <outline>
    <contour>
      <point x="41" y="22"/>
      <point x="41" y="0"/>
      <point x="41" y="22" type="curve"/>
      <point x="41" y="22"/>
      <point x="41" y="22"/>
      <point x="41" y="22" type="curve"/>
      <point x="41" y="0"/>
      <point x="41" y="22"/>
      <point x="41" y="0" type="curve"/>
      <point x="41" y="0"/>
      <point x="41" y="0"/>
      <point x="41" y="0" type="curve"/>
    </contour>
    <contour>
      <point x="310" y="0"/>
      <point x="310" y="22"/>
      <point x="310" y="0" type="curve"/>
      <point x="310" y="0"/>
      <point x="310" y="0"/>
      <point x="310" y="0" type="curve"/>
      <point x="310" y="22"/>
      <point x="310" y="0"/>
      <point x="310" y="22" type="curve"/>
      <point x="310" y="22"/>
      <point x="310" y="22"/>
      <point x="310" y="22" type="curve"/>
    </contour>
    <contour>
      <point x="291" y="511"/>
      <point x="291" y="533"/>
      <point x="291" y="511" type="curve"/>
      <point x="291" y="511"/>
      <point x="291" y="511"/>
      <point x="291" y="511" type="curve"/>
      <point x="291" y="533"/>
      <point x="291" y="511"/>
      <point x="291" y="533" type="curve"/>
      <point x="291" y="533"/>
      <point x="291" y="533"/>
      <point x="291" y="533" type="curve"/>
    </contour>
    <contour>
      <point x="41" y="0"/>
      <point x="41" y="22"/>
      <point x="41" y="0" type="curve"/>
      <point x="41" y="0"/>
      <point x="41" y="0"/>
      <point x="41" y="0" type="curve"/>
      <point x="41" y="22"/>
      <point x="41" y="0"/>
      <point x="41" y="22" type="curve"/>
      <point x="41" y="22"/>
      <point x="41" y="22"/>
      <point x="41" y="22" type="curve"/>
    </contour>
    <contour>
      <point x="291" y="533"/>
      <point x="291" y="511"/>
      <point x="291" y="533" type="curve"/>
      <point x="291" y="533"/>
      <point x="291" y="533"/>
      <point x="291" y="533" type="curve"/>
      <point x="291" y="511"/>
      <point x="291" y="533"/>
      <point x="291" y="511" type="curve"/>
      <point x="291" y="511"/>
      <point x="291" y="511"/>
      <point x="291" y="511" type="curve"/>
    </contour>
    <contour>
      <point x="43" y="800"/>
      <point x="43" y="778"/>
      <point x="43" y="800" type="curve"/>
      <point x="43" y="800"/>
      <point x="43" y="800"/>
      <point x="43" y="800" type="curve"/>
      <point x="43" y="778"/>
      <point x="43" y="800"/>
      <point x="43" y="778" type="curve"/>
      <point x="43" y="778"/>
      <point x="43" y="778"/>
      <point x="43" y="778" type="curve"/>
    </contour>
    <contour>
      <point x="54" y="0"/>
      <point x="30" y="0"/>
      <point x="54" y="0" type="curve"/>
      <point x="54" y="0"/>
      <point x="54" y="800"/>
      <point x="54" y="800" type="curve"/>
      <point x="30" y="800"/>
      <point x="54" y="800"/>
      <point x="30" y="800" type="curve"/>
      <point x="30" y="533"/>
      <point x="30" y="267"/>
      <point x="30" y="0" type="curve"/>
    </contour>
    <contour>
      <point x="285" y="533"/>
      <point x="321" y="533"/>
      <point x="285" y="533" type="curve"/>
      <point x="203" y="447"/>
      <point x="121" y="361"/>
      <point x="39" y="275" type="curve"/>
      <point x="76" y="275"/>
      <point x="39" y="275"/>
      <point x="76" y="275" type="curve"/>
      <point x="157" y="361"/>
      <point x="239" y="447"/>
      <point x="321" y="533" type="curve"/>
    </contour>
    <contour>
      <point x="340" y="0"/>
      <point x="303" y="0"/>
      <point x="340" y="0" type="curve"/>
      <point x="252" y="92"/>
      <point x="164" y="183"/>
      <point x="76" y="275" type="curve"/>
      <point x="39" y="275"/>
      <point x="76" y="275"/>
      <point x="39" y="275" type="curve"/>
      <point x="127" y="183"/>
      <point x="215" y="92"/>
      <point x="303" y="0" type="curve"/>
    </contour>
  </outline>
</glyph>
<glyph name="o" format="1">
  <advance width="386"/>
  <unicode hex="006F"/>
  <outline>
    <contour>
      <point x="54" y="269"/>
      <point x="30" y="268"/>
      <point x="54" y="269" type="curve"/>
      <point x="54" y="402"/>
      <point x="75" y="511"/>
      <point x="190" y="511" type="curve"/>
      <point x="308" y="511"/>
      <point x="332" y="401"/>
      <point x="332" y="265" type="curve"/>
      <point x="332" y="131"/>
      <point x="309" y="22"/>
      <point x="194" y="22" type="curve"/>
      <point x="76" y="22"/>
      <point x="54" y="133"/>
      <point x="54" y="269" type="curve"/>
      <point x="30" y="268"/>
      <point x="54" y="269"/>
      <point x="30" y="268" type="curve"/>
      <point x="30" y="117"/>
      <point x="61" y="-5"/>
      <point x="192" y="-5" type="curve"/>
      <point x="323" y="-5"/>
      <point x="356" y="115"/>
      <point x="356" y="265" type="curve"/>
      <point x="356" y="416"/>
      <point x="323" y="538"/>
      <point x="191" y="538" type="curve"/>
      <point x="61" y="538"/>
      <point x="30" y="417"/>
      <point x="30" y="268" type="curve"/>
    </contour>
  </outline>
</glyph>
<glyph name="p" format="1">
  <advance width="378"/>
  <unicode hex="0070"/>
  <outline>
    <contour>
      <point x="42" y="-279"/>
      <point x="42" y="-300"/>
      <point x="42" y="-279" type="curve"/>
      <point x="42" y="-279"/>
      <point x="42" y="-279"/>
      <point x="42" y="-279" type="curve"/>
      <point x="42" y="-300"/>
      <point x="42" y="-279"/>
      <point x="42" y="-300" type="curve"/>
      <point x="42" y="-300"/>
      <point x="42" y="-300"/>
      <point x="42" y="-300" type="curve"/>
    </contour>
    <contour>
      <point x="42" y="-300"/>
      <point x="42" y="-279"/>
      <point x="42" y="-300" type="curve"/>
      <point x="42" y="-300"/>
      <point x="42" y="-300"/>
      <point x="42" y="-300" type="curve"/>
      <point x="42" y="-279"/>
      <point x="42" y="-300"/>
      <point x="42" y="-279" type="curve"/>
      <point x="42" y="-279"/>
      <point x="42" y="-279"/>
      <point x="42" y="-279" type="curve"/>
    </contour>
    <contour>
      <point x="43" y="533"/>
      <point x="43" y="511"/>
      <point x="43" y="533" type="curve"/>
      <point x="43" y="533"/>
      <point x="43" y="533"/>
      <point x="43" y="533" type="curve"/>
      <point x="43" y="511"/>
      <point x="43" y="533"/>
      <point x="43" y="511" type="curve"/>
      <point x="43" y="511"/>
      <point x="43" y="511"/>
      <point x="43" y="511" type="curve"/>
    </contour>
    <contour>
      <point x="48" y="409"/>
      <point x="37" y="424"/>
      <point x="48" y="409" type="curve"/>
      <point x="72" y="452"/>
      <point x="120" y="511"/>
      <point x="191" y="511" type="curve"/>
      <point x="304" y="511"/>
      <point x="324" y="394"/>
      <point x="324" y="263" type="curve"/>
      <point x="326" y="133"/>
      <point x="301" y="20"/>
      <point x="191" y="21" type="curve"/>
      <point x="127" y="21"/>
      <point x="85" y="55"/>
      <point x="50" y="108" type="curve"/>
      <point x="35" y="96"/>
      <point x="50" y="108"/>
      <point x="35" y="96" type="curve"/>
      <point x="73" y="36"/>
      <point x="121" y="-1"/>
      <point x="192" y="-1" type="curve"/>
      <point x="314" y="-1"/>
      <point x="348" y="123"/>
      <point x="348" y="264" type="curve"/>
      <point x="348" y="407"/>
      <point x="317" y="533"/>
      <point x="193" y="533" type="curve"/>
      <point x="117" y="533"/>
      <point x="63" y="471"/>
      <point x="37" y="424" type="curve"/>
    </contour>
    <contour>
      <point x="54" y="-300"/>
      <point x="30" y="-300"/>
      <point x="54" y="-300" type="curve"/>
      <point x="54" y="-22"/>
      <point x="54" y="255"/>
      <point x="54" y="533" type="curve"/>
      <point x="30" y="533"/>
      <point x="54" y="533"/>
      <point x="30" y="533" type="curve"/>
      <point x="30" y="255"/>
      <point x="30" y="-22"/>
      <point x="30" y="-300" type="curve"/>
    </contour>
  </outline>
</glyph>
<glyph name="r" format="1">
  <advance width="247"/>
  <unicode hex="0072"/>
  <outline>
    <contour>
      <point x="42" y="0"/>
      <point x="42" y="22"/>
      <point x="42" y="0" type="curve"/>
      <point x="42" y="0"/>
      <point x="42" y="0"/>
      <point x="42" y="0" type="curve"/>
      <point x="42" y="22"/>
      <point x="42" y="0"/>
      <point x="42" y="22" type="curve"/>
      <point x="42" y="22"/>
      <point x="42" y="22"/>
      <point x="42" y="22" type="curve"/>
    </contour>
    <contour>
      <point x="42" y="22"/>
      <point x="42" y="0"/>
      <point x="42" y="22" type="curve"/>
      <point x="42" y="22"/>
      <point x="42" y="22"/>
      <point x="42" y="22" type="curve"/>
      <point x="42" y="0"/>
      <point x="42" y="22"/>
      <point x="42" y="0" type="curve"/>
      <point x="42" y="0"/>
      <point x="42" y="0"/>
      <point x="42" y="0" type="curve"/>
    </contour>
    <contour>
      <point x="41" y="533"/>
      <point x="41" y="511"/>
      <point x="41" y="533" type="curve"/>
      <point x="41" y="533"/>
      <point x="41" y="533"/>
      <point x="41" y="533" type="curve"/>
      <point x="41" y="511"/>
      <point x="41" y="533"/>
      <point x="41" y="511" type="curve"/>
      <point x="41" y="511"/>
      <point x="41" y="511"/>
      <point x="41" y="511" type="curve"/>
    </contour>
    <contour>
      <point x="54" y="0"/>
      <point x="30" y="0"/>
      <point x="54" y="0" type="curve"/>
      <point x="54" y="178"/>
      <point x="54" y="355"/>
      <point x="54" y="533" type="curve"/>
      <point x="30" y="533"/>
      <point x="54" y="533"/>
      <point x="30" y="533" type="curve"/>
      <point x="30" y="355"/>
      <point x="30" y="178"/>
      <point x="30" y="0" type="curve"/>
    </contour>
    <contour>
      <point x="47" y="402"/>
      <point x="40" y="411"/>
      <point x="47" y="402" type="curve"/>
      <point x="77" y="475"/>
      <point x="137" y="511"/>
      <point x="216" y="511" type="curve"/>
      <point x="216" y="538"/>
      <point x="216" y="511"/>
      <point x="216" y="538" type="curve"/>
      <point x="131" y="538"/>
      <point x="68" y="492"/>
      <point x="40" y="411" type="curve"/>
    </contour>
  </outline>
</glyph>
<glyph name="w" format="1">
  <advance width="619"/>
  <unicode hex="0077"/>
  <outline>
    <contour>
      <point x="313" y="533"/>
      <point x="313" y="511"/>
      <point x="313" y="533" type="curve"/>
      <point x="313" y="533"/>
      <point x="313" y="533"/>
      <point x="313" y="533" type="curve"/>
      <point x="313" y="511"/>
      <point x="313" y="533"/>
      <point x="313" y="511" type="curve"/>
      <point x="313" y="511"/>
      <point x="313" y="511"/>
      <point x="313" y="511" type="curve"/>
    </contour>
    <contour>
      <point x="313" y="511"/>
      <point x="313" y="533"/>
      <point x="313" y="511" type="curve"/>
      <point x="313" y="511"/>
      <point x="313" y="511"/>
      <point x="313" y="511" type="curve"/>
      <point x="313" y="533"/>
      <point x="313" y="511"/>
      <point x="313" y="533" type="curve"/>
      <point x="313" y="533"/>
      <point x="313" y="533"/>
      <point x="313" y="533" type="curve"/>
    </contour>
    <contour>
      <point x="566" y="511"/>
      <point x="566" y="533"/>
      <point x="566" y="511" type="curve"/>
      <point x="566" y="511"/>
      <point x="566" y="511"/>
      <point x="566" y="511" type="curve"/>
      <point x="566" y="533"/>
      <point x="566" y="511"/>
      <point x="566" y="533" type="curve"/>
      <point x="566" y="533"/>
      <point x="566" y="533"/>
      <point x="566" y="533" type="curve"/>
    </contour>
    <contour>
      <point x="566" y="533"/>
      <point x="566" y="511"/>
      <point x="566" y="533" type="curve"/>
      <point x="566" y="533"/>
      <point x="566" y="533"/>
      <point x="566" y="533" type="curve"/>
      <point x="566" y="511"/>
      <point x="566" y="533"/>
      <point x="566" y="511" type="curve"/>
      <point x="566" y="511"/>
      <point x="566" y="511"/>
      <point x="566" y="511" type="curve"/>
    </contour>
    <contour>
      <point x="51" y="533"/>
      <point x="51" y="511"/>
      <point x="51" y="533" type="curve"/>
      <point x="51" y="533"/>
      <point x="51" y="533"/>
      <point x="51" y="533" type="curve"/>
      <point x="51" y="511"/>
      <point x="51" y="533"/>
      <point x="51" y="511" type="curve"/>
      <point x="51" y="511"/>
      <point x="51" y="511"/>
      <point x="51" y="511" type="curve"/>
    </contour>
    <contour>
      <point x="51" y="511"/>
      <point x="51" y="533"/>
      <point x="51" y="511" type="curve"/>
      <point x="51" y="511"/>
      <point x="51" y="511"/>
      <point x="51" y="511" type="curve"/>
      <point x="51" y="533"/>
      <point x="51" y="511"/>
      <point x="51" y="533" type="curve"/>
      <point x="51" y="533"/>
      <point x="51" y="533"/>
      <point x="51" y="533" type="curve"/>
    </contour>
    <contour>
      <point x="182" y="0"/>
      <point x="158" y="0"/>
      <point x="182" y="0" type="curve"/>
      <point x="229" y="178"/>
      <point x="277" y="355"/>
      <point x="324" y="533" type="curve"/>
      <point x="298" y="533"/>
      <point x="324" y="533"/>
      <point x="298" y="533" type="curve"/>
      <point x="251" y="355"/>
      <point x="205" y="178"/>
      <point x="158" y="0" type="curve"/>
    </contour>
    <contour>
      <point x="562" y="533"/>
      <point x="588" y="533"/>
      <point x="562" y="533" type="curve"/>
      <point x="518" y="355"/>
      <point x="475" y="178"/>
      <point x="431" y="0" type="curve"/>
      <point x="455" y="0"/>
      <point x="431" y="0"/>
      <point x="455" y="0" type="curve"/>
      <point x="499" y="178"/>
      <point x="544" y="355"/>
      <point x="588" y="533" type="curve"/>
    </contour>
    <contour>
      <point x="302" y="533"/>
      <point x="328" y="533"/>
      <point x="302" y="533" type="curve"/>
      <point x="345" y="355"/>
      <point x="388" y="178"/>
      <point x="431" y="0" type="curve"/>
      <point x="454" y="0"/>
      <point x="431" y="0"/>
      <point x="454" y="0" type="curve"/>
      <point x="412" y="178"/>
      <point x="370" y="355"/>
      <point x="328" y="533" type="curve"/>
    </contour>
    <contour>
      <point x="30" y="533"/>
      <point x="55" y="533"/>
      <point x="30" y="533" type="curve"/>
      <point x="73" y="355"/>
      <point x="115" y="178"/>
      <point x="158" y="0" type="curve"/>
      <point x="181" y="0"/>
      <point x="158" y="0"/>
      <point x="181" y="0" type="curve"/>
      <point x="139" y="178"/>
      <point x="97" y="355"/>
      <point x="55" y="533" type="curve"/>
    </contour>
  </outline>
</glyph>
<glyph name="x" format="1">
  <advance width="396"/>
  <unicode hex="0078"/>
  <outline>
    <contour>
      <point x="53" y="22"/>
      <point x="53" y="0"/>
      <point x="53" y="22" type="curve"/>
      <point x="53" y="22"/>
      <point x="53" y="22"/>
      <point x="53" y="22" type="curve"/>
      <point x="53" y="0"/>
      <point x="53" y="22"/>
      <point x="53" y="0" type="curve"/>
      <point x="53" y="0"/>
      <point x="53" y="0"/>
      <point x="53" y="0" type="curve"/>
    </contour>
    <contour>
      <point x="342" y="22"/>
      <point x="342" y="0"/>
      <point x="342" y="22" type="curve"/>
      <point x="342" y="22"/>
      <point x="342" y="22"/>
      <point x="342" y="22" type="curve"/>
      <point x="342" y="0"/>
      <point x="342" y="22"/>
      <point x="342" y="0" type="curve"/>
      <point x="342" y="0"/>
      <point x="342" y="0"/>
      <point x="342" y="0" type="curve"/>
    </contour>
    <contour>
      <point x="342" y="0"/>
      <point x="342" y="22"/>
      <point x="342" y="0" type="curve"/>
      <point x="342" y="0"/>
      <point x="342" y="0"/>
      <point x="342" y="0" type="curve"/>
      <point x="342" y="22"/>
      <point x="342" y="0"/>
      <point x="342" y="22" type="curve"/>
      <point x="342" y="22"/>
      <point x="342" y="22"/>
      <point x="342" y="22" type="curve"/>
    </contour>
    <contour>
      <point x="53" y="0"/>
      <point x="53" y="22"/>
      <point x="53" y="0" type="curve"/>
      <point x="53" y="0"/>
      <point x="53" y="0"/>
      <point x="53" y="0" type="curve"/>
      <point x="53" y="22"/>
      <point x="53" y="0"/>
      <point x="53" y="22" type="curve"/>
      <point x="53" y="22"/>
      <point x="53" y="22"/>
      <point x="53" y="22" type="curve"/>
    </contour>
    <contour>
      <point x="331" y="511"/>
      <point x="331" y="533"/>
      <point x="331" y="511" type="curve"/>
      <point x="331" y="511"/>
      <point x="331" y="511"/>
      <point x="331" y="511" type="curve"/>
      <point x="331" y="533"/>
      <point x="331" y="511"/>
      <point x="331" y="533" type="curve"/>
      <point x="331" y="533"/>
      <point x="331" y="533"/>
      <point x="331" y="533" type="curve"/>
    </contour>
    <contour>
      <point x="67" y="533"/>
      <point x="67" y="511"/>
      <point x="67" y="533" type="curve"/>
      <point x="67" y="533"/>
      <point x="67" y="533"/>
      <point x="67" y="533" type="curve"/>
      <point x="67" y="511"/>
      <point x="67" y="533"/>
      <point x="67" y="511" type="curve"/>
      <point x="67" y="511"/>
      <point x="67" y="511"/>
      <point x="67" y="511" type="curve"/>
    </contour>
    <contour>
      <point x="67" y="511"/>
      <point x="67" y="533"/>
      <point x="67" y="511" type="curve"/>
      <point x="67" y="511"/>
      <point x="67" y="511"/>
      <point x="67" y="511" type="curve"/>
      <point x="67" y="533"/>
      <point x="67" y="511"/>
      <point x="67" y="533" type="curve"/>
      <point x="67" y="533"/>
      <point x="67" y="533"/>
      <point x="67" y="533" type="curve"/>
    </contour>
    <contour>
      <point x="331" y="533"/>
      <point x="331" y="511"/>
      <point x="331" y="533" type="curve"/>
      <point x="331" y="533"/>
      <point x="331" y="533"/>
      <point x="331" y="533" type="curve"/>
      <point x="331" y="511"/>
      <point x="331" y="533"/>
      <point x="331" y="511" type="curve"/>
      <point x="331" y="511"/>
      <point x="331" y="511"/>
      <point x="331" y="511" type="curve"/>
    </contour>
    <contour>
      <point x="366" y="0"/>
      <point x="337" y="0"/>
      <point x="366" y="0" type="curve"/>
      <point x="269" y="178"/>
      <point x="171" y="355"/>
      <point x="74" y="533" type="curve"/>
      <point x="47" y="533"/>
      <point x="74" y="533"/>
      <point x="47" y="533" type="curve"/>
      <point x="143" y="355"/>
      <point x="240" y="178"/>
      <point x="337" y="0" type="curve"/>
    </contour>
    <contour>
      <point x="326" y="533"/>
      <point x="353" y="533"/>
      <point x="326" y="533" type="curve"/>
      <point x="227" y="355"/>
      <point x="129" y="178"/>
      <point x="30" y="0" type="curve"/>
      <point x="60" y="0"/>
      <point x="30" y="0"/>
      <point x="60" y="0" type="curve"/>
      <point x="158" y="178"/>
      <point x="255" y="355"/>
      <point x="353" y="533" type="curve"/>
    </contour>
  </outline>
</glyph>
<glyph name="braceright" format="1">
  <advance width="222"/>
  <unicode hex="007D"/>
  <outline>
    <contour>
      <point x="30" y="-125"/>
      <point x="30" y="-103"/>
      <point x="30" y="-125" type="curve"/>
      <point x="103" y="-125"/>
      <point x="122" y="-57"/>
      <point x="122" y="26" type="curve"/>
      <point x="122" y="86"/>
      <point x="122" y="145"/>
      <point x="122" y="205" type="curve"/>
      <point x="122" y="271"/>
      <point x="135" y="327"/>
      <point x="192" y="327" type="curve"/>
      <point x="192" y="350"/>
      <point x="192" y="327"/>
      <point x="192" y="350" type="curve"/>
      <point x="121" y="350"/>
      <point x="100" y="283"/>
      <point x="100" y="203" type="curve"/>
      <point x="100" y="144"/>
      <point x="100" y="84"/>
      <point x="100" y="25" type="curve"/>
      <point x="100" y="-44"/>
      <point x="90" y="-103"/>
      <point x="30" y="-103" type="curve"/>
    </contour>
    <contour>
      <point x="30" y="779"/>
      <point x="30" y="801"/>
      <point x="30" y="779" type="curve"/>
      <point x="90" y="779"/>
      <point x="100" y="720"/>
      <point x="100" y="651" type="curve"/>
      <point x="100" y="592"/>
      <point x="100" y="532"/>
      <point x="100" y="473" type="curve"/>
      <point x="100" y="392"/>
      <point x="121" y="327"/>
      <point x="192" y="327" type="curve"/>
      <point x="192" y="350"/>
      <point x="192" y="327"/>
      <point x="192" y="350" type="curve"/>
      <point x="135" y="350"/>
      <point x="122" y="404"/>
      <point x="122" y="470" type="curve"/>
      <point x="122" y="530"/>
      <point x="122" y="591"/>
      <point x="122" y="651" type="curve"/>
      <point x="122" y="734"/>
      <point x="102" y="801"/>
      <point x="30" y="801" type="curve"/>
    </contour>
  </outline>
</glyph>
<glyph name="adeva" format="1">
  <advance width="602"/>
  <unicode hex="0905"/>
  <outline>
    <contour>
      <point x="460" y="421"/>
      <point x="468" y="403"/>
      <point x="460" y="421" type="curve"/>
      <point x="370" y="359"/>
      <point x="284" y="366"/>
      <point x="177" y="391" type="curve"/>
      <point x="171" y="378"/>
      <point x="177" y="391"/>
      <point x="171" y="378" type="curve"/>
      <point x="284" y="349"/>
      <point x="368" y="332"/>
      <point x="468" y="403" type="curve"/>
    </contour>
    <contour>
      <point x="67" y="641"/>
      <point x="52" y="659"/>
      <point x="67" y="641" type="curve"/>
      <point x="100" y="675"/>
      <point x="128" y="700"/>
      <point x="175" y="700" type="curve"/>
      <point x="251" y="700"/>
      <point x="283" y="634"/>
      <point x="282" y="550" type="curve"/>
      <point x="281" y="458"/>
      <point x="222" y="399"/>
      <point x="130" y="399" type="curve"/>
      <point x="130" y="379"/>
      <point x="130" y="399"/>
      <point x="130" y="379" type="curve"/>
      <point x="237" y="379"/>
      <point x="306" y="446"/>
      <point x="306" y="553" type="curve"/>
      <point x="306" y="649"/>
      <point x="266" y="722"/>
      <point x="179" y="722" type="curve"/>
      <point x="124" y="722"/>
      <point x="90" y="698"/>
      <point x="52" y="659" type="curve"/>
    </contour>
    <contour>
      <point x="52" y="122"/>
      <point x="30" y="122"/>
      <point x="52" y="122" type="curve"/>
      <point x="52" y="122"/>
      <point x="52" y="122"/>
      <point x="52" y="122" type="curve"/>
      <point x="30" y="122"/>
      <point x="52" y="122"/>
      <point x="30" y="122" type="curve"/>
      <point x="30" y="122"/>
      <point x="30" y="122"/>
      <point x="30" y="122" type="curve"/>
    </contour>
    <contour>
      <point x="32" y="122"/>
      <point x="49" y="136"/>
      <point x="32" y="122" type="curve"/>
      <point x="62" y="71"/>
      <point x="110" y="32"/>
      <point x="168" y="32" type="curve"/>
      <point x="271" y="26"/>
      <point x="329" y="105"/>
      <point x="328" y="216" type="curve"/>
      <point x="327" y="329"/>
      <point x="246" y="395"/>
      <point x="130" y="395" type="curve"/>
      <point x="130" y="376"/>
      <point x="130" y="395"/>
      <point x="130" y="376" type="curve"/>
      <point x="234" y="376"/>
      <point x="303" y="316"/>
      <point x="304" y="214" type="curve"/>
      <point x="305" y="119"/>
      <point x="258" y="49"/>
      <point x="170" y="53" type="curve"/>
      <point x="117" y="53"/>
      <point x="77" y="91"/>
      <point x="49" y="136" type="curve"/>
    </contour>
    <contour>
      <point x="466" y="0"/>
      <point x="466" y="22"/>
      <point x="466" y="0" type="curve"/>
      <point x="466" y="0"/>
      <point x="466" y="0"/>
      <point x="466" y="0" type="curve"/>
      <point x="466" y="22"/>
      <point x="466" y="0"/>
      <point x="466" y="22" type="curve"/>
      <point x="466" y="22"/>
      <point x="466" y="22"/>
      <point x="466" y="22" type="curve"/>
    </contour>
    <contour>
      <point x="466" y="22"/>
      <point x="466" y="0"/>
      <point x="466" y="22" type="curve"/>
      <point x="466" y="22"/>
      <point x="466" y="22"/>
      <point x="466" y="22" type="curve"/>
      <point x="466" y="0"/>
      <point x="466" y="22"/>
      <point x="466" y="0" type="curve"/>
      <point x="466" y="0"/>
      <point x="466" y="0"/>
      <point x="466" y="0" type="curve"/>
    </contour>
    <contour>
      <point x="478" y="0"/>
      <point x="454" y="0"/>
      <point x="478" y="0" type="curve"/>
      <point x="478" y="237"/>
      <point x="478" y="473"/>
      <point x="478" y="710" type="curve"/>
      <point x="454" y="710"/>
      <point x="478" y="710"/>
      <point x="454" y="710" type="curve"/>
      <point x="454" y="473"/>
      <point x="454" y="237"/>
      <point x="454" y="0" type="curve"/>
    </contour>
    <contour>
      <point x="359" y="698"/>
      <point x="359" y="722"/>
      <point x="359" y="698" type="curve"/>
      <point x="430" y="698"/>
      <point x="501" y="698"/>
      <point x="571" y="698" type="curve"/>
      <point x="571" y="722"/>
      <point x="571" y="698"/>
      <point x="571" y="722" type="curve"/>
      <point x="501" y="722"/>
      <point x="430" y="722"/>
      <point x="359" y="722" type="curve"/>
    </contour>
  </outline>
</glyph>
<glyph name="edeva" format="1">
  <advance width="490"/>
  <unicode hex="090F"/>
  <outline>
    <contour>
      <point x="290" y="253"/>
      <point x="275" y="272"/>
      <point x="290" y="253" type="curve"/>
      <point x="367" y="323"/>
      <point x="391" y="403"/>
      <point x="391" y="509" type="curve"/>
      <point x="391" y="576"/>
      <point x="391" y="643"/>
      <point x="391" y="710" type="curve"/>
      <point x="367" y="710"/>
      <point x="391" y="710"/>
      <point x="367" y="710" type="curve"/>
      <point x="367" y="642"/>
      <point x="367" y="574"/>
      <point x="367" y="506" type="curve"/>
      <point x="367" y="410"/>
      <point x="346" y="336"/>
      <point x="275" y="272" type="curve"/>
    </contour>
    <contour>
      <point x="30" y="700"/>
      <point x="30" y="722"/>
      <point x="30" y="700" type="curve"/>
      <point x="173" y="700"/>
      <point x="317" y="700"/>
      <point x="461" y="700" type="curve"/>
      <point x="461" y="722"/>
      <point x="461" y="700"/>
      <point x="461" y="722" type="curve"/>
      <point x="317" y="722"/>
      <point x="173" y="722"/>
      <point x="30" y="722" type="curve"/>
    </contour>
    <contour>
      <point x="349" y="10"/>
      <point x="341" y="-12"/>
      <point x="349" y="10" type="curve"/>
      <point x="188" y="104"/>
      <point x="127" y="246"/>
      <point x="127" y="434" type="curve"/>
      <point x="127" y="526"/>
      <point x="127" y="618"/>
      <point x="127" y="710" type="curve"/>
      <point x="103" y="710"/>
      <point x="127" y="710"/>
      <point x="103" y="710" type="curve"/>
      <point x="103" y="617"/>
      <point x="103" y="523"/>
      <point x="103" y="430" type="curve"/>
      <point x="103" y="233"/>
      <point x="170" y="84"/>
      <point x="341" y="-12" type="curve"/>
    </contour>
  </outline>
</glyph>
<glyph name="khadeva" format="1">
  <advance width="731"/>
  <unicode hex="0916"/>
  <outline>
    <contour>
      <point x="582" y="0"/>
      <point x="582" y="22"/>
      <point x="582" y="0" type="curve"/>
      <point x="582" y="0"/>
      <point x="582" y="0"/>
      <point x="582" y="0" type="curve"/>
      <point x="582" y="22"/>
      <point x="582" y="0"/>
      <point x="582" y="22" type="curve"/>
      <point x="582" y="22"/>
      <point x="582" y="22"/>
      <point x="582" y="22" type="curve"/>
    </contour>
    <contour>
      <point x="570" y="710"/>
      <point x="594" y="710"/>
      <point x="570" y="710" type="curve"/>
      <point x="570" y="473"/>
      <point x="570" y="237"/>
      <point x="570" y="0" type="curve"/>
      <point x="594" y="0"/>
      <point x="570" y="0"/>
      <point x="594" y="0" type="curve"/>
      <point x="594" y="237"/>
      <point x="594" y="473"/>
      <point x="594" y="710" type="curve"/>
    </contour>
    <contour>
      <point x="30" y="700"/>
      <point x="30" y="722"/>
      <point x="30" y="700" type="curve"/>
      <point x="254" y="700"/>
      <point x="477" y="700"/>
      <point x="701" y="700" type="curve"/>
      <point x="701" y="722"/>
      <point x="701" y="700"/>
      <point x="701" y="722" type="curve"/>
      <point x="477" y="722"/>
      <point x="254" y="722"/>
      <point x="30" y="722" type="curve"/>
    </contour>
    <contour>
      <point x="584" y="478"/>
      <point x="573" y="468"/>
      <point x="584" y="478" type="curve"/>
      <point x="563" y="522"/>
      <point x="529" y="553"/>
      <point x="481" y="553" type="curve"/>
      <point x="406" y="553"/>
      <point x="380" y="489"/>
      <point x="380" y="402" type="curve"/>
      <point x="380" y="319"/>
      <point x="410" y="256"/>
      <point x="482" y="256" type="curve"/>
      <point x="531" y="256"/>
      <point x="565" y="289"/>
      <point x="585" y="333" type="curve"/>
      <point x="573" y="343"/>
      <point x="585" y="333"/>
      <point x="573" y="343" type="curve"/>
      <point x="554" y="306"/>
      <point x="524" y="278"/>
      <point x="482" y="278" type="curve"/>
      <point x="424" y="278"/>
      <point x="403" y="334"/>
      <point x="403" y="402" type="curve"/>
      <point x="403" y="471"/>
      <point x="421" y="532"/>
      <point x="481" y="532" type="curve"/>
      <point x="523" y="532"/>
      <point x="552" y="507"/>
      <point x="573" y="468" type="curve"/>
    </contour>
    <contour>
      <point x="577" y="159"/>
      <point x="587" y="143"/>
      <point x="577" y="159" type="curve"/>
      <point x="513" y="103"/>
      <point x="454" y="65"/>
      <point x="368" y="65" type="curve"/>
      <point x="166" y="65"/>
      <point x="99" y="263"/>
      <point x="99" y="494" type="curve"/>
      <point x="80" y="491"/>
      <point x="99" y="494"/>
      <point x="80" y="491" type="curve"/>
      <point x="80" y="249"/>
      <point x="154" y="44"/>
      <point x="366" y="44" type="curve"/>
      <point x="459" y="44"/>
      <point x="522" y="86"/>
      <point x="587" y="143" type="curve"/>
    </contour>
    <contour>
      <point x="191" y="706"/>
      <point x="205" y="719"/>
      <point x="191" y="706" type="curve"/>
      <point x="234" y="645"/>
      <point x="257" y="588"/>
      <point x="257" y="513" type="curve"/>
      <point x="257" y="444"/>
      <point x="244" y="382"/>
      <point x="186" y="382" type="curve"/>
      <point x="130" y="382"/>
      <point x="110" y="434"/>
      <point x="99" y="494" type="curve"/>
      <point x="80" y="491"/>
      <point x="99" y="494"/>
      <point x="80" y="491" type="curve"/>
      <point x="92" y="421"/>
      <point x="119" y="361"/>
      <point x="185" y="361" type="curve"/>
      <point x="255" y="361"/>
      <point x="276" y="433"/>
      <point x="276" y="514" type="curve"/>
      <point x="276" y="593"/>
      <point x="251" y="653"/>
      <point x="205" y="719" type="curve"/>
    </contour>
  </outline>
</glyph>
<glyph name="bhadeva" format="1">
  <advance width="569"/>
  <unicode hex="092D"/>
  <outline>
    <contour>
      <point x="435" y="22"/>
      <point x="435" y="0"/>
      <point x="435" y="22" type="curve"/>
      <point x="435" y="22"/>
      <point x="435" y="22"/>
      <point x="435" y="22" type="curve"/>
      <point x="435" y="0"/>
      <point x="435" y="22"/>
      <point x="435" y="0" type="curve"/>
      <point x="435" y="0"/>
      <point x="435" y="0"/>
      <point x="435" y="0" type="curve"/>
    </contour>
    <contour>
      <point x="435" y="0"/>
      <point x="435" y="22"/>
      <point x="435" y="0" type="curve"/>
      <point x="435" y="0"/>
      <point x="435" y="0"/>
      <point x="435" y="0" type="curve"/>
      <point x="435" y="22"/>
      <point x="435" y="0"/>
      <point x="435" y="22" type="curve"/>
      <point x="435" y="22"/>
      <point x="435" y="22"/>
      <point x="435" y="22" type="curve"/>
    </contour>
    <contour>
      <point x="446" y="0"/>
      <point x="422" y="0"/>
      <point x="446" y="0" type="curve"/>
      <point x="446" y="237"/>
      <point x="446" y="473"/>
      <point x="446" y="710" type="curve"/>
      <point x="422" y="710"/>
      <point x="446" y="710"/>
      <point x="422" y="710" type="curve"/>
      <point x="422" y="473"/>
      <point x="422" y="237"/>
      <point x="422" y="0" type="curve"/>
    </contour>
    <contour>
      <point x="320" y="700"/>
      <point x="320" y="722"/>
      <point x="320" y="700" type="curve"/>
      <point x="393" y="700"/>
      <point x="466" y="700"/>
      <point x="539" y="700" type="curve"/>
      <point x="539" y="722"/>
      <point x="539" y="700"/>
      <point x="539" y="722" type="curve"/>
      <point x="466" y="722"/>
      <point x="393" y="722"/>
      <point x="320" y="722" type="curve"/>
    </contour>
    <contour>
      <point x="72" y="528"/>
      <point x="59" y="514"/>
      <point x="72" y="528" type="curve"/>
      <point x="57" y="550"/>
      <point x="52" y="576"/>
      <point x="52" y="606" type="curve"/>
      <point x="53" y="661"/>
      <point x="74" y="700"/>
      <point x="123" y="700" type="curve"/>
      <point x="181" y="700"/>
      <point x="197" y="656"/>
      <point x="197" y="591" type="curve"/>
      <point x="197" y="497"/>
      <point x="197" y="402"/>
      <point x="197" y="307" type="curve"/>
      <point x="197" y="307"/>
      <point x="202" y="298"/>
      <point x="202" y="298" type="curve"/>
      <point x="202" y="298"/>
      <point x="210" y="304"/>
      <point x="210" y="304" type="curve"/>
      <point x="210" y="304"/>
      <point x="202" y="301"/>
      <point x="202" y="301" type="curve"/>
      <point x="280" y="301"/>
      <point x="358" y="301"/>
      <point x="437" y="301" type="curve"/>
      <point x="437" y="323"/>
      <point x="437" y="301"/>
      <point x="437" y="323" type="curve"/>
      <point x="358" y="323"/>
      <point x="280" y="323"/>
      <point x="201" y="323" type="curve"/>
      <point x="183" y="323"/>
      <point x="177" y="310"/>
      <point x="177" y="301" type="curve"/>
      <point x="177" y="288"/>
      <point x="181" y="276"/>
      <point x="200" y="276" type="curve"/>
      <point x="218" y="276"/>
      <point x="219" y="287"/>
      <point x="219" y="307" type="curve"/>
      <point x="219" y="402"/>
      <point x="219" y="497"/>
      <point x="219" y="591" type="curve"/>
      <point x="219" y="670"/>
      <point x="196" y="722"/>
      <point x="124" y="722" type="curve"/>
      <point x="62" y="722"/>
      <point x="31" y="673"/>
      <point x="30" y="605" type="curve"/>
      <point x="30" y="567"/>
      <point x="39" y="540"/>
      <point x="59" y="514" type="curve"/>
    </contour>
  </outline>
</glyph>
<glyph name="ssadeva" format="1">
  <advance width="477"/>
  <unicode hex="0937"/>
  <outline>
    <contour>
      <point x="30" y="700"/>
      <point x="30" y="722"/>
      <point x="30" y="700" type="curve"/>
      <point x="169" y="700"/>
      <point x="308" y="700"/>
      <point x="447" y="700" type="curve"/>
      <point x="447" y="722"/>
      <point x="447" y="700"/>
      <point x="447" y="722" type="curve"/>
      <point x="308" y="722"/>
      <point x="169" y="722"/>
      <point x="30" y="722" type="curve"/>
    </contour>
    <contour>
      <point x="343" y="22"/>
      <point x="343" y="0"/>
      <point x="343" y="22" type="curve"/>
      <point x="343" y="22"/>
      <point x="343" y="22"/>
      <point x="343" y="22" type="curve"/>
      <point x="343" y="0"/>
      <point x="343" y="22"/>
      <point x="343" y="0" type="curve"/>
      <point x="343" y="0"/>
      <point x="343" y="0"/>
      <point x="343" y="0" type="curve"/>
    </contour>
    <contour>
      <point x="343" y="0"/>
      <point x="343" y="22"/>
      <point x="343" y="0" type="curve"/>
      <point x="343" y="0"/>
      <point x="343" y="0"/>
      <point x="343" y="0" type="curve"/>
      <point x="343" y="22"/>
      <point x="343" y="0"/>
      <point x="343" y="22" type="curve"/>
      <point x="343" y="22"/>
      <point x="343" y="22"/>
      <point x="343" y="22" type="curve"/>
    </contour>
    <contour>
      <point x="93" y="700"/>
      <point x="109" y="714"/>
      <point x="93" y="700" type="curve"/>
      <point x="173" y="579"/>
      <point x="254" y="458"/>
      <point x="334" y="337" type="curve"/>
      <point x="350" y="355"/>
      <point x="334" y="337"/>
      <point x="350" y="355" type="curve"/>
      <point x="270" y="474"/>
      <point x="190" y="594"/>
      <point x="109" y="714" type="curve"/>
    </contour>
    <contour>
      <point x="336" y="369"/>
      <point x="352" y="361"/>
      <point x="336" y="369" type="curve"/>
      <point x="315" y="304"/>
      <point x="281" y="260"/>
      <point x="215" y="260" type="curve"/>
      <point x="135" y="260"/>
      <point x="112" y="334"/>
      <point x="112" y="424" type="curve"/>
      <point x="112" y="519"/>
      <point x="112" y="614"/>
      <point x="112" y="709" type="curve"/>
      <point x="88" y="709"/>
      <point x="112" y="709"/>
      <point x="88" y="709" type="curve"/>
      <point x="88" y="615"/>
      <point x="88" y="521"/>
      <point x="88" y="427" type="curve"/>
      <point x="88" y="323"/>
      <point x="121" y="237"/>
      <point x="214" y="237" type="curve"/>
      <point x="288" y="237"/>
      <point x="331" y="286"/>
      <point x="352" y="361" type="curve"/>
    </contour>
    <contour>
      <point x="354" y="0"/>
      <point x="329" y="0"/>
      <point x="354" y="0" type="curve"/>
      <point x="354" y="237"/>
      <point x="354" y="473"/>
      <point x="354" y="710" type="curve"/>
      <point x="329" y="710"/>
      <point x="354" y="710"/>
      <point x="329" y="710" type="curve"/>
      <point x="329" y="473"/>
      <point x="329" y="237"/>
      <point x="329" y="0" type="curve"/>
    </contour>
  </outline>
</glyph>
<glyph name="uni0921094D092F" format="1">
  <advance width="873"/>
  <unicode hex="E002"/>
  <outline>
    <contour>
      <point x="760" y="0"/>
      <point x="760" y="22"/>
      <point x="760" y="0" type="curve"/>
      <point x="760" y="0"/>
      <point x="760" y="0"/>
      <point x="760" y="0" type="curve"/>
      <point x="760" y="22"/>
      <point x="760" y="0"/>
      <point x="760" y="22" type="curve"/>
      <point x="760" y="22"/>
      <point x="760" y="22"/>
      <point x="760" y="22" type="curve"/>
    </contour>
    <contour>
      <point x="772" y="0"/>
      <point x="747" y="0"/>
      <point x="772" y="0" type="curve"/>
      <point x="772" y="237"/>
      <point x="772" y="473"/>
      <point x="772" y="710" type="curve"/>
      <point x="747" y="710"/>
      <point x="772" y="710"/>
      <point x="747" y="710" type="curve"/>
      <point x="747" y="473"/>
      <point x="747" y="237"/>
      <point x="747" y="0" type="curve"/>
    </contour>
    <contour>
      <point x="347" y="513"/>
      <point x="322" y="513"/>
      <point x="347" y="513" type="curve"/>
      <point x="347" y="579"/>
      <point x="347" y="644"/>
      <point x="347" y="710" type="curve"/>
      <point x="322" y="710"/>
      <point x="347" y="710"/>
      <point x="322" y="710" type="curve"/>
      <point x="322" y="644"/>
      <point x="322" y="579"/>
      <point x="322" y="513" type="curve"/>
    </contour>
    <contour>
      <point x="335" y="533"/>
      <point x="335" y="512"/>
      <point x="335" y="533" type="curve"/>
      <point x="290" y="533"/>
      <point x="245" y="533"/>
      <point x="199" y="533" type="curve"/>
      <point x="119" y="533"/>
      <point x="79" y="490"/>
      <point x="79" y="409" type="curve"/>
      <point x="79" y="343"/>
      <point x="102" y="299"/>
      <point x="151" y="266" type="curve"/>
      <point x="157" y="290"/>
      <point x="151" y="266"/>
      <point x="157" y="290" type="curve"/>
      <point x="121" y="318"/>
      <point x="103" y="355"/>
      <point x="103" y="409" type="curve"/>
      <point x="103" y="475"/>
      <point x="136" y="512"/>
      <point x="200" y="512" type="curve"/>
      <point x="245" y="512"/>
      <point x="290" y="512"/>
      <point x="335" y="512" type="curve"/>
    </contour>
    <contour>
      <point x="70" y="105"/>
      <point x="85" y="121"/>
      <point x="70" y="105" type="curve"/>
      <point x="117" y="42"/>
      <point x="166" y="0"/>
      <point x="246" y="0" type="curve"/>
      <point x="334" y="0"/>
      <point x="377" y="71"/>
      <point x="377" y="166" type="curve"/>
      <point x="376" y="252"/>
      <point x="340" y="318"/>
      <point x="261" y="318" type="curve"/>
      <point x="221" y="318"/>
      <point x="194" y="307"/>
      <point x="157" y="290" type="curve"/>
      <point x="151" y="266"/>
      <point x="157" y="290"/>
      <point x="151" y="266" type="curve"/>
      <point x="188" y="284"/>
      <point x="216" y="296"/>
      <point x="258" y="296" type="curve"/>
      <point x="325" y="296"/>
      <point x="354" y="238"/>
      <point x="354" y="163" type="curve"/>
      <point x="354" y="84"/>
      <point x="322" y="22"/>
      <point x="248" y="22" type="curve"/>
      <point x="175" y="22"/>
      <point x="128" y="63"/>
      <point x="85" y="121" type="curve"/>
    </contour>
    <contour>
      <point x="323" y="512"/>
      <point x="323" y="533"/>
      <point x="323" y="512" type="curve"/>
      <point x="388" y="512"/>
      <point x="429" y="512"/>
      <point x="495" y="512" type="curve"/>
      <point x="563" y="512"/>
      <point x="607" y="479"/>
      <point x="607" y="415" type="curve"/>
      <point x="607" y="347"/>
      <point x="557" y="317"/>
      <point x="484" y="317" type="curve"/>
      <point x="476" y="317"/>
      <point x="484" y="317"/>
      <point x="476" y="317" type="curve"/>
      <point x="476" y="312"/>
      <point x="476" y="317"/>
      <point x="476" y="312" type="curve"/>
      <point x="478" y="182"/>
      <point x="510" y="83"/>
      <point x="626" y="83" type="curve"/>
      <point x="709" y="83"/>
      <point x="742" y="141"/>
      <point x="769" y="225" type="curve"/>
      <point x="752" y="235"/>
      <point x="769" y="225"/>
      <point x="752" y="235" type="curve"/>
      <point x="728" y="160"/>
      <point x="700" y="106"/>
      <point x="626" y="106" type="curve"/>
      <point x="524" y="106"/>
      <point x="500" y="196"/>
      <point x="501" y="312" type="curve"/>
      <point x="498" y="309"/>
      <point x="496" y="307"/>
      <point x="493" y="304" type="curve"/>
      <point x="491" y="301"/>
      <point x="488" y="298"/>
      <point x="485" y="295" type="curve"/>
      <point x="572" y="295"/>
      <point x="630" y="334"/>
      <point x="630" y="415" type="curve"/>
      <point x="630" y="493"/>
      <point x="577" y="533"/>
      <point x="495" y="533" type="curve"/>
      <point x="429" y="533"/>
      <point x="388" y="533"/>
      <point x="323" y="533" type="curve"/>
    </contour>
    <contour>
      <point x="30" y="700"/>
      <point x="30" y="722"/>
      <point x="30" y="700" type="curve"/>
      <point x="301" y="700"/>
      <point x="572" y="700"/>
      <point x="843" y="700" type="curve"/>
      <point x="843" y="722"/>
      <point x="843" y="700"/>
      <point x="843" y="722" type="curve"/>
      <point x="572" y="722"/>
      <point x="301" y="722"/>
      <point x="30" y="722" type="curve"/>
    </contour>
  </outline>
</glyph>
